<?xml version="1.0" encoding="utf-8"?>
<!-- Generator: Adobe Illustrator 22.0.1, SVG Export Plug-In . SVG Version: 6.00 Build 0)  -->
<svg version="1.1" id="Ebene_1" xmlns="http://www.w3.org/2000/svg" xmlns:xlink="http://www.w3.org/1999/xlink" x="0px" y="0px"
	 viewBox="0 0 192.5 52.4" style="enable-background:new 0 0 192.5 52.4;" xml:space="preserve">
<style type="text/css">
	.st0{fill:#FFFFFF;}
</style>
<title>Protectino Logo White</title>
<path class="st0" d="M35.9,48.5L35.9,48.5c-2.2,1.6-4.5,2.9-6.9,3.8l-0.6,0.2c-0.1,0-0.1,0-0.2,0c-2.8-0.7-5.4-2-7.7-3.8l-0.1-0.1
	h0.1l1.3-0.1c0.1,0,0.2,0,0.3,0.1c1.9,1.3,3.9,2.3,6.1,2.8c0.1,0,0.2,0,0.3,0c1-0.3,2-0.7,2.9-1.2c1-0.5,1.9-1,2.8-1.6
	c0.1-0.1,0.2-0.1,0.3-0.1l1.3,0.1L35.9,48.5z"/>
<path class="st0" d="M13.4,36.2c-1-2.2-1.7-4.5-2.3-6.8h0.1c0.3,0.1,0.5,0.1,0.8,0.2c0.1,0,0.2,0.1,0.2,0.2c0.2,0.9,0.5,1.9,0.8,2.8
	c0.4,1.2,0.8,2.3,1.3,3.4c0,0,0,0.1,0.1,0.1L13.4,36.2z"/>
<path class="st0" d="M45.3,29.3c-0.3,2.4-0.9,4.7-1.8,6.9L42.6,36v-0.1c0.7-1.5,1.2-3.1,1.5-4.8c0.1-0.5,0.2-1,0.3-1.5
	c0-0.1,0-0.1,0.1-0.1C44.7,29.4,45,29.4,45.3,29.3L45.3,29.3z"/>
<path class="st0" d="M14,9.6L14,9.6l-0.4,1.5c0,0.1-0.1,0.2-0.2,0.3c-0.8,0.5-1.5,1.1-2.1,1.8c0,0.1-0.1,0.1-0.2,0.1l-1.1-0.4
	l-0.2-0.1c0.5-0.5,1-1,1.5-1.4C12.2,10.6,13.1,10.1,14,9.6z"/>
<path class="st0" d="M45.3,13.2L45.1,13c-0.6-0.6-1.3-1.2-2-1.7c-0.1,0-0.1-0.1-0.2-0.2c-0.1-0.5-0.3-1-0.4-1.5l0,0
	c0.8,0.4,1.5,0.8,2.1,1.4c0.7,0.5,1.3,1.1,1.8,1.8C46.1,12.9,45.7,13.1,45.3,13.2z"/>
<path class="st0" d="M18.2,37.3h-0.4l-0.7,0.1l-0.6,0.1l-0.7,0.1l-0.7,0.1l-0.7,0.1l-0.7,0.1l-0.8,0.1L12,37.9l-0.9,0.1l-1,0.2
	l-1.4,0.3c-0.7,0.2-1.4,0.3-2.1,0.5c-0.5,0.1-1,0.2-1.5,0.4C4.8,39.5,4.4,39.7,4,40c-0.3,0.3-0.6,0.6-0.7,1.1
	c-0.1,0.3-0.1,0.5,0,0.8c0.1,0.6,0.3,1.2,0.4,1.8c0.2,0.9,0.4,1.8,0.7,2.6c0.2,0.5,0.4,1,0.7,1.5c0.2,0.4,0.6,0.8,1,1
	C6.4,49,6.7,49.1,7,49.2c0.3,0.1,0.6,0.1,1,0.1c0.3,0,0.7,0,1,0c0.9,0,1.7-0.2,2.5-0.5c0.2-0.1,0.4-0.2,0.6-0.3
	c0.2-0.1,0.2-0.3,0.1-0.5c0,0-0.1-0.1-0.1-0.1c-0.2-0.1-0.4-0.2-0.6-0.2l-0.3-0.1c-0.2-0.1-0.3-0.2-0.1-0.4c0.1-0.1,0.2-0.2,0.3-0.2
	c0.1,0,0.1-0.1,0.2-0.1s0.1-0.1,0-0.2c-0.1,0-0.3,0-0.4,0l-3,0.9H7.9c0,0,0,0-0.1,0l0,0h0.1H7.8l0,0l0,0h0.2l-0.1,0.1l0,0H8L7.8,48
	l0,0h0.4l0,0H7.9c0.2,0.1,0.5,0.2,0.7,0.2H8c0.3,0.1,0.6,0.1,0.9,0.1l0,0c-0.1,0-0.3,0.1-0.4,0.1c-0.6,0.1-1.3,0.1-1.9-0.1
	C6.4,48.1,6.2,48,6,47.9c-0.1-0.1-0.2-0.2-0.2-0.3c0-0.1,0-0.3,0.1-0.4c0.2-0.1,0.3-0.2,0.5-0.3c0.4-0.2,0.9-0.4,1.4-0.5
	c0.8-0.2,1.6-0.4,2.5-0.6l1.9-0.3l1.8-0.3l1.3-0.2l1.3-0.2l1.3-0.2l1.1-0.1l1-0.1l0.9-0.1l0.9-0.1l0.8-0.1l0.9-0.1l0.6,0l0.9-0.1
	h0.5l1-0.1h0.4c0.6,0,1.2,0,1.8,0c0.4,0,0.8,0,1.2,0h1l1.1,0.1l0.8,0.1l0.9,0.1l0.7,0.1l0.8,0.1l0.7,0.1l0.7,0.1l0.7,0.1l0.8,0.1
	l0.7,0.1l0.8,0.1l0.8,0.1l0.9,0.1l1,0.2l0.9,0.1l1.4,0.2c0.5,0.1,1.1,0.2,1.6,0.3s1.3,0.3,1.9,0.4c0.5,0.1,0.9,0.3,1.3,0.5
	c0.2,0.1,0.5,0.2,0.7,0.4c0.1,0.1,0.2,0.1,0.2,0.2c0.1,0.1,0.1,0.3,0,0.5c-0.2,0.2-0.3,0.3-0.6,0.3c-0.3,0.1-0.7,0.2-1,0.2
	c-0.2,0-0.4,0-0.7,0c-0.2,0-0.4-0.1-0.6-0.1h-0.1H48c0.1,0,0.3,0,0.4-0.1l0,0h-0.6c0.2,0,0.5-0.1,0.7-0.2l0,0h-0.2
	c-0.1,0-0.1,0-0.2,0h0.4l0,0l-0.2-0.1c0.1,0,0.2,0,0.3-0.1l-0.3-0.1l0,0h0.2c0,0,0,0,0.1,0l0-0.1h-0.1L45.4,47c-0.1,0-0.3,0-0.5,0
	c-0.1,0-0.1,0.1,0,0.2l0.2,0.1c0.1,0.1,0.2,0.2,0.3,0.3c0.1,0.1,0.1,0.3-0.1,0.4S45,48,44.9,48c-0.2,0-0.3,0.1-0.5,0.2
	c-0.1,0-0.2,0.1-0.2,0.3c0,0.1,0,0.2,0.1,0.3c0.2,0.1,0.4,0.2,0.6,0.3c0.5,0.2,1,0.3,1.5,0.4c0.6,0.1,1.2,0.2,1.8,0.1
	c0.6-0.1,1.3-0.3,1.8-0.6c0.4-0.2,0.7-0.4,0.9-0.7c0.4-0.5,0.7-1.1,0.9-1.7c0.3-0.8,0.5-1.5,0.7-2.3l0.5-2.5c0.1-0.5,0-1-0.4-1.4
	c-0.4-0.4-0.8-0.7-1.3-0.9c-0.5-0.2-1-0.4-1.5-0.5c-0.9-0.2-1.8-0.4-2.6-0.5c-0.6-0.1-1.3-0.2-1.9-0.3l-1.3-0.2L43,37.8l-1-0.1
	l-0.9-0.1l-0.8-0.1l-0.8-0.1l-0.8-0.1h-0.4l0.9-0.3c0.4-0.1,0.8-0.3,1.2-0.5c0,0,0.1,0,0.1,0l0.7,0.1l0.9,0.1l0.8,0.1l0.8,0.1
	l0.8,0.1l1,0.1l1.1,0.2l1.3,0.2l1.4,0.3c0.7,0.1,1.3,0.3,2,0.4s1.2,0.3,1.8,0.4c0.3,0.1,0.6,0.2,0.9,0.4c0.3,0.3,0.5,0.6,0.6,1
	c0.1,0.4,0.1,0.8,0,1.2c-0.1,0.8-0.3,1.5-0.4,2.2c-0.2,1-0.5,2-0.8,3c-0.2,0.5-0.3,1-0.5,1.5c-0.3,0.8-1,1.5-1.8,1.8
	c-0.5,0.2-0.9,0.3-1.4,0.4c-0.5,0.1-1,0.1-1.5,0.1c-0.6,0-1.2-0.1-1.8-0.2c-0.5-0.1-1.1-0.3-1.6-0.5c-0.5-0.2-0.9-0.4-1.3-0.7
	c-0.2-0.2-0.4-0.4-0.5-0.6c-0.1-0.2-0.1-0.3,0-0.5c0.1-0.1,0.2-0.2,0.3-0.3c0.2-0.1,0.5-0.2,0.7-0.2H44c0.1,0,0.2-0.1,0.1-0.2
	l-0.2-0.3c0-0.1-0.1-0.1-0.1-0.2c0-0.1,0-0.1,0.1-0.2h0.1h-0.1c-0.6-0.2-1.2-0.3-1.8-0.4l-1.2-0.2l-1-0.1l-1-0.1l-0.7-0.1l-0.8-0.1
	l-0.7-0.1l-0.7-0.1h-0.6h-0.7h-0.5L33.2,45h-0.5h-1H31l-1.3-0.1h-0.4c-0.3,0-0.6,0-0.9,0h-1.2h-0.4h-0.9L24.6,45l-1,0.1l-1.3,0.1
	h-0.7l-0.8,0.1L20,45.3l-0.7,0.1l-0.7,0.1l-0.7,0.1l-0.8,0.1l-0.8,0.1l-0.8,0.1c-0.5,0.1-1.1,0.2-1.6,0.3s-0.8,0.2-1.3,0.3h-0.1v0.1
	c0.1,0.1,0.1,0.2,0,0.2c0,0,0,0,0,0c0,0.1-0.1,0.1-0.1,0.2l-0.2,0.2c-0.1,0.1-0.1,0.2,0,0.2c0,0,0,0,0,0c0.1,0.1,0.3,0.1,0.5,0.2
	c0.1,0,0.2,0.1,0.4,0.1c0.3,0.1,0.5,0.3,0.4,0.6c0,0,0,0.1,0,0.1c-0.1,0.4-0.3,0.7-0.7,0.9c-0.4,0.3-0.9,0.4-1.3,0.6
	c-0.7,0.2-1.3,0.4-2,0.5c-0.4,0.1-0.8,0.1-1.2,0.1c-0.3,0-0.6,0-0.9,0c-0.7,0-1.4-0.2-2.1-0.4c-0.9-0.4-1.6-1.1-1.9-2.1
	c-0.4-1.2-0.7-2.3-1-3.5c-0.1-0.6-0.2-1.2-0.4-1.8c0-0.3-0.1-0.5-0.1-0.8s0-0.3,0-0.4c-0.1-0.5,0-1.1,0.2-1.6c0.2-0.5,0.6-0.8,1.1-1
	c0.4-0.1,0.8-0.2,1.2-0.3C5.2,38.3,6,38.1,6.8,38l1.9-0.3l1.8-0.3l1.7-0.3l1.5-0.2l1.3-0.2l1.1-0.1h0c0.1,0,0.2,0,0.2,0
	c0.5,0.3,1,0.4,1.5,0.5L18.2,37.3L18.2,37.3z"/>
<path class="st0" d="M22,37l0.5-0.3c0.1,0,0.2-0.1,0.3-0.1c0.7-0.2,1.3-0.3,2-0.4L26,36l0.9-0.1c0.6-0.1,1.1-0.1,1.7-0.1
	c0.3,0,0.7,0,1,0.1s0.8,0.1,1.2,0.2c0.6,0.1,1.1,0.2,1.7,0.3s1.1,0.3,1.7,0.4c0.1,0,0.2,0.1,0.2,0.1l0.2,0.1h-0.4h-0.6h-0.9h-0.6
	l-1-0.1h-0.7l-1.4,0h-1.3h-1L25.4,37h-0.8L23.3,37l-0.9,0.1L22,37z"/>
<path class="st0" d="M54.1,31c0,0.1,0,0.1-0.1,0.2c-0.2,0.6-0.4,1.2-0.7,1.8c-0.4,0.8-0.9,1.4-1.5,2c-0.7,0.6-1.6,1.1-2.5,1.3
	c-0.1,0-0.2,0.1-0.3,0S49,36.3,49,36.2c-0.8-0.7-1.3-1.7-1.5-2.7c-0.1-0.5-0.2-1-0.1-1.5c0-0.8,0.2-1.6,0.4-2.4c0-0.1,0-0.2,0.1-0.3
	l0.5,0.1c0.5,0.1,0.9,0.1,1.4,0.1c0.5,0,0.9-0.1,1.4-0.4c0.1-0.1,0.3-0.2,0.4-0.3v0.1c0.1,0.4,0.4,0.7,0.7,1c0.5,0.4,1,0.8,1.6,1
	L54.1,31L54.1,31L54.1,31z M48.2,29.8c-0.1,0.2-0.1,0.5-0.2,0.7c-0.1,0.4-0.2,0.9-0.2,1.3c0,0.3,0,0.7,0,1c0.1,1.1,0.6,2.1,1.4,2.8
	c0,0,0.1,0,0.1,0c0.6-0.1,1.2-0.3,1.8-0.6c0.4-0.3,0.7-0.6,1-1c0.4-0.5,0.8-1.1,1-1.8c0.1-0.3,0.2-0.6,0.3-0.8c0-0.1,0-0.1,0-0.1
	c-0.2-0.1-0.4-0.2-0.6-0.3c-0.3-0.2-0.7-0.4-1-0.6c-0.3-0.2-0.5-0.5-0.6-0.8l-0.1-0.2h0c-0.2,0.2-0.4,0.3-0.7,0.4
	c-0.5,0.2-1.1,0.2-1.6,0.1L48.2,29.8z"/>
<path class="st0" d="M48.7,30.5c0.2,0,0.3,0.1,0.5,0.1c0.5,0.1,1,0,1.4-0.1c0.1-0.1,0.3-0.1,0.4-0.2l0,0l0,0
	c0.1,0.3,0.4,0.6,0.7,0.9c0.3,0.2,0.6,0.4,1,0.5h0.1c-0.1,0.2-0.1,0.4-0.2,0.5c-0.1,0.5-0.3,1-0.6,1.4c-0.5,0.8-1.3,1.3-2.3,1.5
	c0,0-0.1,0-0.1,0c-0.3-0.3-0.6-0.6-0.8-1c-0.2-0.4-0.3-0.8-0.3-1.2c0-0.2,0-0.4,0-0.6c0-0.5,0.1-0.9,0.2-1.4
	C48.6,30.7,48.6,30.6,48.7,30.5z M48.8,33c0,0.1,0,0.1,0,0.2c0,0.3,0.2,0.5,0.4,0.7c0.3,0.2,0.5,0.3,0.8,0.3c0.2,0,0.4,0,0.5,0
	c0.3-0.1,0.6-0.3,0.8-0.6c0.2-0.4,0.1-0.8-0.2-1c-0.1-0.1-0.3-0.2-0.5-0.3c-0.2-0.1-0.3-0.2-0.5-0.3c-0.1,0-0.1-0.1-0.1-0.2
	c0-0.1,0.1-0.2,0.2-0.2c0.2,0,0.5,0.1,0.5,0.4c0,0,0,0,0,0c0,0.2,0.1,0.2,0.2,0.2l0.5,0.1c0.1,0,0.1,0,0.1-0.1v-0.3
	c0-0.3-0.1-0.5-0.3-0.6c-0.4-0.2-0.8-0.4-1.2-0.4c-0.3,0-0.5,0.1-0.7,0.4c-0.2,0.3-0.2,0.7,0,1c0.2,0.2,0.4,0.4,0.6,0.5
	c0.2,0.1,0.3,0.2,0.5,0.3c0.1,0.1,0.2,0.3,0.1,0.4c0,0,0,0-0.1,0.1c-0.2,0.1-0.4,0.1-0.5,0c-0.2-0.1-0.3-0.3-0.2-0.5
	c0,0,0-0.1,0-0.1l-0.7-0.1h-0.1C48.8,32.8,48.8,32.9,48.8,33z"/>
<path class="st0" d="M9.1,32.1c0,0.1,0,0.1,0,0.2c0,0.6-0.1,1.3-0.4,1.9c-0.3,0.9-0.9,1.7-1.6,2.3c0,0-0.1,0-0.1,0
	c-1.5-0.4-2.7-1.3-3.5-2.6c-0.4-0.7-0.7-1.4-0.9-2.2L2.4,31l0,0l0.4-0.1c0.6-0.2,1.2-0.5,1.6-0.9c0.3-0.3,0.5-0.6,0.7-1
	c0-0.1,0-0.1,0.1-0.2l0.1,0.1c0.3,0.2,0.6,0.4,1,0.5c0.5,0.1,1.1,0.2,1.6,0.1c0.2,0,0.5-0.1,0.7-0.1h0.1c0,0.2,0.1,0.3,0.1,0.5
	c0.1,0.4,0.1,0.8,0.2,1.2c0,0.2,0,0.4,0,0.6c0,0,0,0.1,0,0.1L9.1,32.1z M5.4,29.5L5.4,29.5v0.1c-0.2,0.4-0.6,0.8-1,1
	c-0.4,0.2-0.8,0.4-1.2,0.6c-0.1,0-0.1,0,0,0.1s0.1,0.3,0.1,0.4c0.1,0.5,0.3,1,0.5,1.5c0.2,0.3,0.4,0.7,0.6,1c0.4,0.6,1,1,1.7,1.3
	c0.3,0.1,0.6,0.2,0.8,0.3h0.1c0.2-0.2,0.4-0.4,0.6-0.6C7.8,34.8,8,34.4,8.2,34c0.3-0.8,0.4-1.6,0.3-2.4c-0.1-0.5-0.1-1-0.2-1.4
	c0,0,0-0.1-0.1-0.1c-0.5,0.1-1,0.1-1.5,0c-0.4,0-0.8-0.2-1.1-0.5C5.4,29.6,5.4,29.6,5.4,29.5z"/>
<path class="st0" d="M5.5,30.3c0.1,0.1,0.3,0.2,0.4,0.2c0.3,0.1,0.6,0.2,0.9,0.2c0.3,0,0.6,0,0.9,0c0,0,0.1,0,0.1,0
	C7.9,31.2,8,31.7,8,32.2c0,0.7-0.1,1.3-0.4,1.9c-0.2,0.4-0.5,0.8-0.8,1.1c-0.1,0-0.1,0-0.2,0c-0.4-0.1-0.9-0.3-1.2-0.6
	c-0.4-0.3-0.7-0.7-1-1.1C4.2,33,4,32.5,3.8,32c0-0.1-0.1-0.2-0.1-0.4l0.4-0.1c0.4-0.1,0.8-0.4,1.1-0.7C5.4,30.7,5.5,30.5,5.5,30.3z
	 M6.2,32.8L6.2,32.8L6.2,32.8l-0.7-1.4c0-0.1-0.1-0.1-0.1-0.1c-0.3,0.1-0.5,0.1-0.8,0.2c-0.1,0-0.1,0-0.1,0.1l0.4,1.7
	c0,0.2,0.1,0.5,0.2,0.7c0,0,0,0.1,0.1,0l0.5,0l-0.5-2c0,0,0,0,0,0.1c0.3,0.6,0.6,1.2,0.9,1.8c0,0,0.1,0.1,0.1,0.1c0,0,0,0,0,0
	l0.4-0.1c0,0,0.1,0,0.1-0.1c0,0,0,0,0,0c0-0.6,0-1.3,0-1.9v-0.2c0,0,0,0,0,0.1L7,33.6c0,0.1,0,0.1,0.1,0.1l0.4-0.1
	c0.1,0,0.1,0,0-0.1C7.4,32.7,7.2,32,7,31.3C7,31.2,7,31.1,7,31H7l-0.8,0.2c0,0-0.1,0-0.1,0.1c0,0.3,0,0.5,0,0.8L6.2,32.8z"/>
<path class="st0" d="M56.4,15.1C56.4,15.1,56.4,15.1,56.4,15.1c-0.1,0.5-0.2,1-0.4,1.4c-0.3,0.6-0.7,1.2-1.2,1.7
	c-0.1,0.1-0.2,0.3-0.3,0.4c-0.1,0.1-0.1,0.2-0.1,0.2c0,0.3,0,0.7-0.1,1c0,0.1,0,0.1-0.1,0.2c-0.5,1-1.3,1.8-2.2,2.5l-0.4,0.3
	l-0.1,0.1l0,0.2c0.1,0.3,0.1,0.6,0.1,0.9c0,0.2-0.1,0.4-0.2,0.5c-0.7,0.6-1.5,1.2-2.3,1.5c-0.6,0.2-1.1,0.4-1.7,0.6l-0.2,0.1
	c0,0.1,0,0.1,0,0.2c0,0.1,0,0.3-0.1,0.4c0,0.1-0.1,0.2-0.2,0.3c-0.4,0.3-0.7,0.6-1.1,0.9c-0.4,0.3-0.9,0.5-1.4,0.6
	c-0.7,0.2-1.5,0.2-2.3,0.1c-0.8-0.1-1.7-0.3-2.4-0.7c-0.5-0.3-0.9-0.6-1.3-1c-0.1-0.1-0.1-0.2,0-0.3c0.1-0.3,0.2-0.7,0.3-1
	c0,0,0-0.1,0-0.1l0.1,0.1c0.5,0.7,1.2,1.2,2,1.5c0.7,0.3,1.6,0.4,2.4,0.3c0.8-0.1,1.7-0.3,2.4-0.6c0.1,0,0.2-0.1,0.3-0.1
	c0,0,0.1,0,0.1-0.1h-0.4c-1.4-0.1-2.7-0.8-3.7-1.9c-0.2-0.2-0.4-0.5-0.6-0.8l0.1,0.1c0.9,0.6,1.9,1.1,3,1.3c0.5,0.1,0.9,0.2,1.4,0.2
	c1.2,0.1,2.4-0.3,3.3-1c0.4-0.3,0.7-0.6,1.1-0.9c0,0,0,0,0.1-0.1l-0.4,0.1C49.3,24,48.7,24,48.2,24c-0.6,0-1.2-0.1-1.8-0.2
	c-0.8-0.1-1.6-0.4-2.4-0.7c0,0-0.1,0-0.1-0.1h0.4c0.6,0,1.3,0,1.9,0c0.4,0,0.8,0,1.2-0.1c0.8-0.1,1.6-0.2,2.3-0.5
	c0.9-0.4,1.6-0.9,2.2-1.6c0.4-0.5,0.8-1,1.2-1.6c0,0,0-0.1,0-0.1L53,19.2c-0.9,0.4-1.8,0.7-2.7,1c-0.8,0.2-1.6,0.4-2.4,0.5
	c-0.7,0.1-1.4,0.1-2.1,0c-0.6,0-1.2-0.1-1.8-0.2l0,0h0.1c0.6,0,1.3,0,1.9,0c0.6,0,1.1-0.1,1.7-0.2s1.3-0.2,1.9-0.3
	c0.4-0.1,0.8-0.2,1.1-0.4c2-0.8,3.6-2.4,4.4-4.4c0-0.1,0-0.1,0.1-0.2c0,0-0.1,0-0.2,0c-0.6,0.4-1.1,0.7-1.7,1
	c-1.6,0.8-3.3,1.3-5,1.6c-0.5,0.1-0.9,0.1-1.4,0.2h-0.2c0,0,0.1-0.1,0.1-0.1c0.2-0.1,0.3-0.2,0.5-0.3l2-0.8c0.5-0.2,1-0.4,1.5-0.6
	l0.2-0.1c0.8-0.6,1.6-1.3,2.2-2.1c0.5-0.8,0.9-1.6,1.1-2.6c0.1-0.5,0.1-1,0.1-1.5c0-0.2,0-0.5-0.1-0.7c0,0,0-0.1,0-0.1l-0.1,0.1
	c-1.2,1.6-2.7,3-4.5,3.9c-1.5,0.9-3.1,1.6-4.7,2.1c-0.9,0.3-1.8,0.5-2.6,0.7h-0.1c0-0.1,0-0.2,0-0.3c0-0.3,0.1-0.6,0.2-0.8
	c0-0.1,0.1-0.2,0.2-0.2c2.3-0.3,4.5-1.2,6.5-2.6c1.4-0.9,2.7-2.1,3.8-3.4c0.2-0.2,0.4-0.5,0.7-0.6c0.2-0.1,0.4-0.2,0.6-0.3
	c0.3-0.1,0.6,0,0.8,0.2c0.3,0.3,0.5,0.7,0.6,1.1c0.1,0.4,0.1,0.8,0.1,1.2c0,1.1-0.2,2.1-0.7,3.1L55,13.5l0.1,0.1l0.6,0.3
	c0.2,0.1,0.4,0.3,0.5,0.4c0.1,0.1,0.1,0.2,0.2,0.4c0,0,0,0,0,0.1L56.4,15.1z"/>
<path class="st0" d="M12.6,23.1l-0.6,0.2c-0.7,0.3-1.5,0.4-2.3,0.5C9,23.9,8.4,24,7.7,24c-0.5,0-1-0.1-1.5-0.2l0,0c0,0,0,0,0,0
	c0.5,0.5,1.1,0.9,1.7,1.3c0.6,0.4,1.3,0.6,2.1,0.7c1,0.1,2-0.1,2.9-0.4c0.8-0.3,1.5-0.6,2.1-1.1h0.1l-0.1,0.1
	c-0.4,0.7-1,1.2-1.6,1.6c-0.7,0.4-1.4,0.7-2.1,0.8c-0.2,0-0.5,0-0.7,0.1h-0.1l0.1,0.1c0.5,0.3,1.1,0.5,1.7,0.6
	c0.5,0.1,1,0.2,1.5,0.2c1.5,0,2.9-0.6,3.8-1.8l0.2-0.2l0,0c0,0,0,0,0,0.1c0.1,0.3,0.2,0.7,0.3,1c0.1,0.1,0.1,0.2,0,0.2
	c-0.4,0.5-0.9,0.8-1.5,1.1c-0.6,0.3-1.3,0.5-2,0.6c-0.4,0.1-0.8,0.1-1.3,0c-0.7,0-1.4-0.1-2-0.4c-0.3-0.1-0.5-0.3-0.8-0.4l-1-0.8
	c-0.2-0.2-0.3-0.4-0.3-0.7c0-0.1,0-0.2,0-0.3L9,26.4c-0.8-0.2-1.6-0.5-2.4-0.9C6,25.2,5.5,24.8,5,24.3c-0.1-0.1-0.2-0.3-0.2-0.5
	c0-0.3,0.1-0.6,0.2-0.8c0,0,0-0.1,0-0.2l0,0c-0.7-0.4-1.4-1-1.9-1.6c-0.2-0.3-0.5-0.6-0.7-1c-0.2-0.3-0.3-0.6-0.3-1
	c0-0.1,0-0.2,0-0.4c0-0.1-0.1-0.2-0.2-0.3c-0.4-0.5-0.8-1.1-1.1-1.6c-0.3-0.5-0.5-1-0.7-1.5C0,15.3,0,15.1,0,14.9
	c0-0.4,0.2-0.8,0.5-1c0.2-0.2,0.5-0.3,0.7-0.4l0.2-0.1c0,0,0-0.1-0.1-0.1c-0.3-0.7-0.5-1.5-0.6-2.3c-0.1-0.5-0.1-1.1,0-1.6
	c0-0.4,0.1-0.7,0.3-1c0.1-0.1,0.2-0.2,0.3-0.3c0.2-0.3,0.6-0.4,1-0.3c0.2,0,0.3,0.1,0.4,0.2C3,8.2,3.2,8.3,3.4,8.6
	c0.7,0.8,1.4,1.5,2.2,2.2c1.3,1.1,2.8,2,4.4,2.7c1.1,0.5,2.2,0.8,3.4,1c0.1,0,0.3,0.1,0.4,0.1c0.1,0,0.1,0.1,0.2,0.1
	c0.1,0.2,0.1,0.4,0.2,0.7s0,0.3,0.1,0.4H14c-2.4-0.5-4.7-1.4-6.9-2.5c-1.3-0.7-2.5-1.5-3.5-2.5c-0.5-0.5-1-1-1.4-1.6
	c0,0-0.1-0.1-0.1-0.1l0,0c0,0.1,0,0.2,0,0.3c-0.1,1,0,2,0.3,3c0.3,1,0.9,1.9,1.6,2.6c0.4,0.4,0.9,0.8,1.3,1.1c0.1,0,0.1,0.1,0.2,0.1
	c0.8,0.4,1.6,0.7,2.4,1l1.2,0.5c0.2,0.1,0.3,0.1,0.4,0.3c-0.1,0-0.1,0-0.2,0c-2.8-0.3-5.6-1.3-8-2.8L1.3,15l0,0c0,0.1,0,0.1,0,0.1
	C1.6,16,2,16.8,2.6,17.5c1,1.1,2.2,2,3.7,2.4c0.4,0.1,0.8,0.2,1.2,0.3c0.5,0.1,1,0.1,1.4,0.2l1.5,0.1c0.6,0,1.2,0,1.8,0
	c0.1,0,0.2,0,0.3,0l-0.7,0.1c-0.8,0.1-1.6,0.2-2.3,0.1c-1,0-1.9-0.2-2.8-0.4c-1.1-0.3-2.2-0.7-3.2-1.2l-0.2-0.1c0,0,0,0.1,0,0.1
	c0.4,0.7,1,1.3,1.5,1.9c0.8,0.8,1.7,1.3,2.8,1.6c0.4,0.1,0.9,0.2,1.3,0.2c0.8,0.1,1.6,0.2,2.4,0.1C11.7,23.1,12.1,23,12.6,23.1
	L12.6,23.1z"/>
<path class="st0" d="M24.9,0h0.4l0.4,0.1c0.8,0.1,1.6,0.4,2.3,0.9c0,0,0.1,0.1,0.1,0.1l0.2-0.1c0.7-0.4,1.4-0.7,2.2-0.8L31,0h0.4
	h0.2c0.5,0,1.1,0.1,1.6,0.3c0.1,0,0.1,0,0.2,0.1L33,0.6c-0.2,0.1-0.2,0.2-0.3,0.3l0,0c0.5-0.2,1.1-0.3,1.6-0.2
	c0.6,0.1,1.2,0.2,1.8,0.4l0.7,0.2c-0.3,0.1-0.6,0.2-0.9,0.2c0.1,0,0.1,0.1,0.2,0.1c0.4,0.2,0.8,0.5,1.2,0.8c0.1,0.1,0.2,0.1,0.3,0.2
	c0.3,0.1,0.7,0.2,1,0.4c0.5,0.3,1,0.7,1.4,1.3c0.4,0.6,0.6,1.2,0.6,1.9c0,0.4,0,0.7,0,1.1c0,0.1,0,0.2,0.1,0.3
	c0.1,0.1,0.2,0.3,0.3,0.4c0.4,0.7,0.8,1.4,1,2.2c0.2,0.7,0.4,1.5,0.5,2.3c0.1,0.7,0.2,1.4,0.2,2.1c0,0.1,0,0.1,0,0.2
	c-0.1,0.5-0.1,1.1-0.2,1.6c-0.1,1-0.4,1.9-0.8,2.8c-0.6,1.4-1.6,2.6-2.7,3.6l-0.3,0.3c0,0-0.1,0.1-0.1,0.2v0.4
	c0.1,0.5,0.1,1,0.1,1.5c0,0.6-0.1,1.1-0.2,1.7c-0.2,0.6-0.5,1.2-1.1,1.6l0,0l-0.1,0.1h0.1c0.2-0.1,0.5-0.1,0.7-0.2
	c0.4-0.1,0.8-0.1,1.2,0.1c0.4,0.1,0.7,0.3,1,0.5c1,0.6,1.7,1.7,1.7,2.9c0,0.5,0,1-0.1,1.5c-0.2,1.1-0.8,2-1.7,2.6
	c-0.8,0.5-1.8,0.8-2.7,0.9c-0.5,0-0.9,0-1.4,0c-0.2,0-0.3,0-0.5,0c-0.4-0.1-0.8-0.2-1.1-0.4c-0.1,0-0.1-0.1-0.2-0.1
	c-1.2-0.3-2.4-0.6-3.6-0.8c-0.7-0.1-1.4-0.2-2.1-0.2c-0.8,0-1.5,0-2.3,0.1c-0.7,0.1-1.3,0.2-2,0.3c-0.8,0.1-1.5,0.3-2.2,0.5
	c-0.1,0-0.1,0-0.2,0.1c-0.5,0.4-1.2,0.6-1.8,0.6c-0.5,0-1.1,0-1.6,0c-0.7-0.1-1.4-0.3-2.1-0.6c-1-0.5-1.8-1.4-2.1-2.5
	c-0.2-0.6-0.3-1.3-0.2-2c0.1-0.8,0.4-1.6,1-2.2c0.5-0.5,1.1-0.9,1.8-1.1c0.2,0,0.3-0.1,0.5-0.1c0.4-0.1,0.9,0,1.3,0.1h0.1l0,0
	l-0.1-0.1c-0.3-0.2-0.5-0.5-0.7-0.9c-0.3-0.7-0.5-1.5-0.4-2.3c0-0.6,0.1-1.1,0.1-1.7c0-0.1,0-0.2-0.1-0.3c-0.2-0.2-0.4-0.4-0.6-0.6
	c-1.5-1.5-2.5-3.3-2.9-5.4c-0.1-0.4-0.1-0.7-0.2-1c0-0.3-0.1-0.6-0.2-0.9c-0.1-0.3-0.1-0.7-0.1-1c0-0.2,0-0.4,0.1-0.6
	c0.1-0.5,0.1-0.9,0.2-1.4c0.1-0.8,0.3-1.7,0.6-2.4C15,9,15.4,8.2,15.9,7.5c0-0.1,0-0.1,0-0.2c-0.1-0.5-0.1-1.1,0-1.6
	c0.1-0.9,0.6-1.6,1.3-2.2c0.4-0.4,1-0.7,1.5-0.9c0.2-0.1,0.4-0.2,0.5-0.3c0.3-0.2,0.7-0.5,1.1-0.7l0.1-0.1c-0.3-0.1-0.7-0.2-1-0.3
	l0.1-0.1c0.2-0.1,0.5-0.1,0.7-0.2c0.7-0.2,1.5-0.3,2.2-0.3c0.3,0,0.7,0.1,1,0.2h0.1c-0.2-0.2-0.4-0.4-0.6-0.5h0.1
	c0.4-0.2,0.8-0.3,1.3-0.3L24.9,0z M20.4,11c-0.4,0-0.8,0-1.2,0.2c0.2-0.2,0.4-0.3,0.6-0.4c0.2-0.1,0.3-0.2,0.5-0.3s0.1,0,0.1-0.1V10
	h-0.1l-0.6,0.1c-0.4,0-0.9,0-1.3-0.1c-0.7-0.2-1.2-0.6-1.5-1.2l-0.1-0.1l-0.1,0.1c-0.6,0.5-1,1.1-1.3,1.8c-0.2,0.5-0.4,1.1-0.5,1.7
	c-0.1,0.4-0.1,0.8-0.1,1.2c0,0.1,0,0.1,0,0.2c0.2-0.6,0.6-1.1,1-1.6c0.4-0.4,1-0.8,1.6-0.9l0,0c-0.6,0.3-1.1,0.8-1.5,1.4
	c-0.4,0.7-0.7,1.6-0.7,2.4c0,0.6,0,1.2,0.1,1.8V17v0.2l0,0c0.1-0.5,0.3-1.1,0.6-1.5c0.3-0.5,0.6-0.9,1-1.2c-0.9,1.3-1.2,2.9-0.6,4.4
	c0.1-0.4,0.2-0.8,0.4-1.1c0.1-0.4,0.4-0.7,0.7-1c0,0.1-0.1,0.2-0.1,0.2l-0.1,0.2c-0.3,0.9-0.4,1.8-0.2,2.7c0.1,0.7,0.4,1.3,0.8,1.8
	c0,0,0.1,0.1,0.1,0.1v-0.1c-0.1-0.5-0.1-1,0-1.5c0-0.3,0.1-0.6,0.2-1l0.1-0.1c0,0.1,0.1,0.2,0.1,0.3c0,0.4,0.1,0.9,0.3,1.3
	c0.3,0.8,0.8,1.5,1.4,2c0.7,0.6,1.6,1.2,2.5,1.5h0.1c-0.2-0.2-0.4-0.5-0.6-0.7c-0.2-0.2-0.3-0.5-0.5-0.8c-0.1-0.3-0.3-0.5-0.4-0.8
	c-0.1-0.3-0.2-0.6-0.3-0.9c0.3,0.8,0.9,1.6,1.5,2.2c0.7,0.6,1.5,1,2.4,1.1c-0.8-0.9-1.3-1.9-1.7-3c0,0,0,0,0,0
	c0.7,1.1,1.5,2.2,2.5,3.1c0.3,0.3,0.6,0.5,1,0.7l0.2,0.1c0.1-0.4,0.1-0.7,0-1.1c-0.1-0.4-0.3-0.8-0.5-1.2L26,23.1
	c0.1,0.1,0.3,0.3,0.4,0.4c0.8,0.9,1.4,1.9,1.8,3.1l0.1,0.1c0.2-0.7,0.5-1.4,0.9-2c0.4-0.6,0.8-1.2,1.3-1.6c-0.5,0.7-0.7,1.6-0.5,2.5
	l0.1-0.1c0.2-0.2,0.5-0.3,0.7-0.5c1.1-1,2.1-2.1,2.8-3.3c0,0,0-0.1,0-0.1c-0.1,0.6-0.3,1.1-0.6,1.6c-0.3,0.5-0.6,1-1,1.5
	c0.3-0.1,0.7-0.2,1-0.3c0.3-0.1,0.6-0.3,0.9-0.5c0.3-0.2,0.6-0.4,0.8-0.7c0.2-0.3,0.5-0.5,0.7-0.8c0.2-0.3,0.3-0.6,0.5-0.9
	c-0.3,1.1-0.9,2.2-1.7,3.1c0,0,0.1,0,0.1,0c0.9-0.3,1.6-0.8,2.4-1.4c1-0.8,1.7-2,1.8-3.3c0-0.1,0-0.3,0-0.5c0,0,0.1,0.1,0.1,0.1
	c0.1,0.3,0.2,0.7,0.2,1c0,0.5,0,1,0,1.4c0,0,0,0.1,0,0.1h0l0.1-0.1c0.6-0.7,0.9-1.7,0.9-2.6c0-0.8-0.2-1.5-0.5-2.3l0-0.1l0,0
	c0,0,0.1,0,0.1,0.1c0.3,0.3,0.5,0.6,0.6,1c0.1,0.3,0.2,0.6,0.3,0.9V19l0,0c0.3-0.7,0.3-1.5,0.2-2.3c-0.1-0.8-0.4-1.5-0.9-2.2
	c0.5,0.5,0.9,1,1.3,1.6c0.2,0.3,0.3,0.7,0.3,1c0,0,0,0.1,0,0.1l0,0c0.2-0.7,0.2-1.5,0.1-2.3c0-0.7-0.2-1.4-0.6-2.1
	c-0.3-0.7-0.9-1.3-1.5-1.6H39c1,0.3,1.9,1,2.3,1.9c0.1,0.2,0.2,0.3,0.2,0.5l0.1,0.1v-0.1c0-0.6-0.1-1.2-0.2-1.8
	c-0.2-1.1-0.8-2.1-1.7-2.9l-0.2-0.1c0,0,0,0.1-0.1,0.1c-0.3,0.5-0.8,0.9-1.4,1.1c-0.6,0.2-1.3,0.2-2,0.1H36c0,0.2,0,0.3,0,0.4
	c0,0,0,0.1,0,0.1c0,0,0.1,0,0.1,0.1c0.3,0.2,0.6,0.3,0.9,0.5H37v0.1c-0.3-0.1-0.6-0.2-0.9-0.2v1.5c0.7,0.2,1.3,0.5,1.8,1
	c-0.3-0.2-0.6-0.3-1-0.4c0.5,0.4,0.9,1,1.1,1.6c-0.1-0.1-0.2-0.1-0.2-0.2l-0.2-0.2c-0.1-0.1-0.2-0.1-0.3-0.2l0.4,0.5
	c0.1,0.2,0.2,0.3,0.3,0.5L37.9,15c-0.2-0.3-0.5-0.5-0.8-0.6l-0.2,0l0.3,3.7c-0.1-0.6-0.3-1.1-0.7-1.5l0,0c-0.1,0.3-0.3,0.6-0.5,0.9
	c-0.2,0.3-0.5,0.6-0.8,0.8c-0.1,0-0.1,0.1-0.1,0.2c0,0,0,0,0,0c0.1,0.2,0.1,0.5,0.1,0.8c0,0.7-0.1,1.5-0.3,2.1c0,0,0,0.1,0,0.1
	c0-0.1,0-0.1,0-0.2c0-0.5,0-1.1,0-1.6c0-0.2-0.1-0.5-0.2-0.7c0-0.1-0.1-0.2-0.2-0.2c0,0-0.1,0-0.1,0.1c-0.2,0.1-0.4,0.3-0.6,0.4
	c-0.3,0.2-0.6,0.4-1,0.5c-0.2,0-0.3,0.2-0.3,0.4c-0.1,0.6-0.3,1.1-0.7,1.6l-0.1,0.1c0.2-0.5,0.2-1,0.2-1.5l-0.1,0.1
	c-0.3,0.3-0.5,0.5-0.9,0.7c-0.6,0.4-1.3,0.6-2,0.7c-0.1,0-0.2,0.1-0.2,0.1c-0.1,0.3-0.3,0.6-0.4,0.9c-0.1,0.2-0.2,0.4-0.2,0.6
	c0-0.1-0.1-0.3-0.1-0.4c-0.2-0.4-0.4-0.8-0.5-1.2c0-0.1-0.1-0.1-0.1-0.1c-0.2,0-0.4-0.1-0.6-0.1c-0.9-0.2-1.7-0.6-2.3-1.3
	c0,0,0,0-0.1,0c0,0.5,0,1,0.2,1.5c-0.1-0.1-0.2-0.3-0.3-0.5c-0.2-0.4-0.4-0.9-0.4-1.4c0-0.1,0-0.2-0.1-0.2c-0.1,0-0.2-0.1-0.2-0.1
	c-0.5-0.2-1-0.5-1.5-0.9h0c-0.1,0.1-0.2,0.2-0.2,0.3c-0.1,0.2-0.1,0.4-0.1,0.6c0,0.5,0,1,0,1.6c0,0.1,0,0.2,0,0.2v-0.1
	c-0.2-0.5-0.3-1-0.3-1.5c-0.1-0.5,0-1,0.1-1.5c0-0.1,0-0.2-0.1-0.2c-0.3-0.3-0.6-0.6-0.9-1c-0.2-0.2-0.3-0.5-0.4-0.7c0,0,0,0,0-0.1
	c0,0-0.1,0.1-0.1,0.1c-0.1,0.1-0.2,0.3-0.3,0.4c-0.1,0.3-0.2,0.7-0.3,1l0.2-3.6l-0.1,0.1c-0.3,0.1-0.6,0.3-0.8,0.6
	c0,0-0.1,0.1-0.1,0.1c0.2-0.4,0.4-0.7,0.6-1c-0.3,0.2-0.5,0.4-0.8,0.6c0.1-0.2,0.1-0.3,0.2-0.4l0.3-0.4c0.1-0.1,0.2-0.3,0.3-0.4
	c0.1-0.1,0.2-0.2,0.3-0.3c-0.4,0-0.7,0.2-1,0.4c0.5-0.5,1.1-0.9,1.8-1.1L20.4,11z M28.3,7.8c-0.1-0.1-0.3-0.3-0.4-0.4
	c-0.4-0.4-1-0.7-1.6-0.8c-0.7-0.1-1.4-0.1-2.1,0c-0.3,0-0.7,0.1-1,0.3c-0.7,0.4-1.2,1-1.4,1.7L21.7,9c-0.2,0.8-0.3,1.6-0.4,2.3
	c0,0.5-0.2,1-0.4,1.4c-0.3,0.5-0.5,1-0.5,1.5c-0.1,0.4,0,0.9,0.1,1.3c0.5,1.1,1.4,2,2.5,2.6c0.6,0.3,1.2,0.6,1.8,0.8
	c0,0,0.1,0.1,0.1,0.1c0.4,0.5,0.9,1,1.5,1.2c0.5,0.2,1.1,0.4,1.7,0.4c0.7,0,1.3,0,1.9-0.3c0.7-0.2,1.4-0.7,1.8-1.4
	c0,0,0.1-0.1,0.1-0.1c0.6-0.3,1.2-0.5,1.7-0.8c1.1-0.6,1.9-1.5,2.4-2.6c0.1-0.1,0.1-0.3,0.2-0.4c0.1-0.4,0.1-0.8-0.1-1.2
	c-0.1-0.4-0.3-0.8-0.5-1.2c-0.2-0.3-0.3-0.7-0.4-1.1c-0.1-0.6-0.1-1.2-0.2-1.7c-0.1-0.4-0.2-0.9-0.3-1.3c-0.4-1-1.2-1.7-2.3-1.9
	c-0.7-0.1-1.4-0.1-2.1,0c-0.5,0.1-0.9,0.2-1.3,0.5C28.7,7.3,28.5,7.5,28.3,7.8z M35.8,7.8l-0.2,0.3c-0.1,0.1-0.1,0.2,0,0.3
	c0.1,0.4,0.3,0.7,0.7,0.9c0.2,0.2,0.5,0.2,0.8,0.2c0.2,0,0.4,0,0.5-0.1C38,9.3,38.4,9,38.7,8.7c0.2-0.1,0.3-0.3,0.4-0.4
	c0.2-0.4,0.4-0.7,0.5-1.2c0.2-0.8,0-1.6-0.5-2.2c-0.4-0.5-1-1-1.6-1.3c-0.6-0.3-1.2-0.4-1.8-0.3c-0.4,0.1-0.7,0.2-1.1,0.3l-0.2,0.1
	c0-0.1,0-0.1,0.1-0.1c0.1-0.1,0.3-0.3,0.4-0.4c0.4-0.3,0.7-0.5,1.2-0.6h0.1c-0.9-0.4-2-0.4-2.9-0.1c0.4-0.4,0.9-0.6,1.5-0.8
	c0,0,0.1,0,0.1-0.1l-0.2-0.1c-0.8-0.3-1.6-0.4-2.4-0.3c-0.8,0.1-1.5,0.4-2.2,0.8H30c0.2-0.3,0.5-0.6,0.9-0.9c0.3-0.2,0.6-0.5,1-0.6
	c-1.3-0.3-2.7,0.1-3.7,1.1l0,0C27.9,1.5,27.5,1.2,27,1c-0.7-0.3-1.5-0.4-2.3-0.3h-0.1l0,0c0.8,0.3,1.4,0.8,2,1.5h-0.1
	c-0.8-0.5-1.8-0.8-2.8-0.8c-0.7,0-1.3,0.1-1.9,0.4l-0.1,0c0.3,0.1,0.6,0.2,0.8,0.3c0.3,0.1,0.5,0.3,0.8,0.5c-0.9-0.4-2-0.4-2.9,0.1
	l0.1,0.1C20.7,2.8,21,3,21.2,3.1c0.3,0.1,0.5,0.3,0.7,0.5l0.2,0.2c0,0-0.1,0-0.1,0l-0.4-0.2c-0.8-0.4-1.8-0.4-2.6,0
	c-0.6,0.3-1.1,0.7-1.5,1.2c-0.2,0.3-0.4,0.6-0.5,0.9c-0.1,0.4-0.2,0.9,0,1.4c0.1,0.6,0.4,1.1,0.8,1.6C18.1,9,18.5,9.2,19,9.4
	c0.2,0.1,0.5,0.1,0.8,0.1c0.6-0.1,1.1-0.6,1.2-1.2c0,0,0-0.1,0-0.1c-0.1-0.1-0.1-0.3-0.3-0.4c-0.1,0.1-0.3,0.2-0.4,0.3
	c-0.2,0.2-0.5,0.3-0.8,0.3c-0.4,0-0.7-0.1-1-0.3c-0.2-0.2-0.4-0.4-0.5-0.7c0-0.2,0-0.4,0-0.7c0-0.2,0.1-0.4,0.2-0.6
	c0.3-0.4,0.8-0.6,1.3-0.5c0.1,0,0.2,0,0.3,0.1c0.2,0.1,0.4,0.3,0.6,0.5c0.2,0.2,0.3,0.4,0.3,0.6c0,0.2,0.1,0.4,0.3,0.5
	c0.1,0.1,0.2,0.1,0.3,0c0,0,0,0,0,0c0.2-0.2,0.3-0.6,0.3-0.9C21.5,5.8,21,5.2,20.4,5c-0.3-0.1-0.7-0.2-1.1-0.1
	c-0.4,0-0.8,0.1-1.2,0.3l0,0c0,0,0-0.1,0.1-0.1c0.2-0.2,0.4-0.4,0.7-0.6c0.5-0.3,1-0.3,1.5-0.3c0.3,0.1,0.6,0.2,0.8,0.4
	c0.3,0.2,0.6,0.5,0.9,0.9c0.2,0.2,0.3,0.5,0.4,0.8v0.1C23.2,6,24,5.7,24.8,5.6c-0.4-0.1-0.7-0.2-1-0.3c0.4,0.1,0.9,0.1,1.3,0.1h0.1
	c0.4,0.1,0.8,0.2,1.2,0.4h0.1c-0.2-0.4-0.4-0.7-0.6-1c0.6,0.4,1.2,0.8,1.8,1.3c0.2,0.2,0.3,0.4,0.5,0.6l0,0c0.2-0.3,0.4-0.5,0.7-0.7
	c0.5-0.4,1-0.8,1.6-1.2h0.1c-0.3,0.3-0.5,0.6-0.6,1H30c0.3-0.1,0.6-0.2,0.8-0.3c0.2-0.1,0.3-0.1,0.5-0.1c0.5,0,0.9,0,1.4-0.1
	c-0.3,0.2-0.7,0.2-1,0.3h0.1C32.2,5.7,32.6,5.8,33,6l0.9,0.4c0,0,0.1,0.1,0.2,0.1c0-0.4,0.2-0.8,0.5-1.1c0.3-0.3,0.6-0.6,0.9-0.8
	c0.3-0.2,0.7-0.3,1.1-0.3c0.4,0,0.9,0.1,1.3,0.4c0.2,0.1,0.4,0.3,0.5,0.5c0,0,0,0.1,0,0.1C38.2,5.1,38,5.1,37.8,5
	c-0.5-0.1-1-0.2-1.5-0.1c-0.7,0.2-1.3,0.7-1.4,1.4c-0.1,0.4,0,0.8,0.3,1c0.1,0.1,0.1,0.1,0.2,0c0.2-0.1,0.3-0.3,0.4-0.5
	c0-0.2,0.1-0.3,0.1-0.5c0.2-0.3,0.4-0.5,0.7-0.7c0,0,0.1,0,0.1,0c0.2,0,0.5,0,0.7,0c0.4,0.1,0.8,0.4,0.9,0.8c0,0.1,0.1,0.3,0.1,0.4
	c0,0.4-0.2,0.8-0.5,1.1c-0.2,0.1-0.4,0.2-0.7,0.3c-0.1,0-0.3,0-0.4,0C36.5,8.3,36.2,8.1,35.8,7.8L35.8,7.8z M22.8,34.9L22.8,34.9
	l1-0.2c0.6-0.1,1.3-0.2,1.9-0.3c0.8,0,1.6,0.1,2.4,0.2c0.1,0,0.2,0,0.3,0c0.9-0.2,1.9-0.3,2.8-0.3c0.8,0,1.6,0.2,2.4,0.5h0.1
	c0,0,0-0.1,0-0.1c-0.1-0.3-0.1-0.6-0.1-0.8c0-0.5,0.1-1.1,0.3-1.6c0.5-1.3,1.2-2.4,2.3-3.2l0.1-0.1c0,0-0.1,0-0.1,0l-1.1,0.4
	c-0.1,0-0.1,0.1-0.2,0.1l-0.5,0.8c-0.3,0.6-1,0.9-1.7,0.8h-0.2c-0.1,0.4-0.3,0.7-0.5,1c-0.2,0.3-0.5,0.6-0.9,0.8l0.3-0.4l0.5-0.6
	c0.1-0.2,0.2-0.4,0.3-0.6c0-0.1,0-0.2,0-0.2c0-0.1,0-0.1-0.1-0.1H32c-0.4,0.3-0.9,0.3-1.4,0.1c-0.4-0.1-0.7-0.3-1-0.4
	c-0.5-0.2-0.9-0.7-0.9-1.2c0-0.1,0-0.1-0.1-0.1c-0.1-0.1-0.2-0.3-0.3-0.5v-0.1c0,0-0.1,0.1-0.1,0.1c0,0.2-0.1,0.3-0.2,0.4
	c-0.1,0-0.1,0.1-0.1,0.2c0,0.4-0.2,0.8-0.6,1c-0.1,0.1-0.3,0.2-0.5,0.3l-0.9,0.3c-0.5,0.2-1,0.2-1.4-0.1l-0.1,0c0,0.1,0,0.2,0,0.3
	c0,0.2,0.1,0.4,0.2,0.5c0.1,0.2,0.2,0.3,0.3,0.5l0.4,0.5c0,0,0.1,0.1,0.1,0.1l0,0c-0.6-0.4-1.1-1.1-1.3-1.8h-0.3
	c-0.7,0.1-1.4-0.2-1.7-0.8c-0.2-0.3-0.3-0.5-0.5-0.8c0-0.1-0.1-0.1-0.2-0.1l-0.9-0.3h-0.1c0,0,0.1,0.1,0.1,0.1
	c1,0.8,1.8,1.9,2.3,3.2c0.2,0.7,0.3,1.4,0.1,2.1C22.9,34.6,22.9,34.8,22.8,34.9L22.8,34.9z M19.1,23.1L19.1,23.1L19.1,23.1
	c-0.4,0.8-0.6,1.6-0.5,2.5c0,0.5,0.1,1,0.3,1.4c0.1,0.3,0.3,0.5,0.5,0.7c0.7,0.6,1.5,1,2.3,1.2c0.1,0,0.1,0,0.1,0.1
	c0.1,0.3,0.3,0.6,0.6,0.9c0.3,0.3,0.7,0.6,1.1,0.7c0.1,0,0.1,0,0.2,0c0.1-0.1,0.2-0.1,0.3-0.2c0.2-0.2,0.3-0.5,0.3-0.8
	c0-0.3,0-0.6-0.1-1v-0.1l0,0c0.1,0.1,0.2,0.3,0.3,0.4c0.2,0.2,0.2,0.5,0.2,0.8c0,0.2,0,0.5-0.1,0.7v0.1c0.3,0.1,0.6,0.2,0.9,0.2
	c0.2,0,0.4-0.1,0.5-0.3c0.1-0.1,0.1-0.2,0.1-0.4c0.1-0.3,0.1-0.7,0-1c0-0.2-0.1-0.4-0.1-0.6c0,0,0.1,0.1,0.1,0.1
	c0.1,0.2,0.3,0.4,0.4,0.6c0.1,0.4,0.2,0.7,0.2,1.1c0,0,0,0.1,0,0.1l0.3-0.1c0.3-0.1,0.4-0.4,0.5-0.7c0-0.2,0-0.4,0-0.5
	c-0.1-0.3-0.2-0.6-0.3-0.9c0,0,0-0.1,0-0.1c0.3,0.2,0.6,0.6,0.8,0.9c0-0.1,0.1-0.1,0.1-0.2c0.2-0.7,0-1.4-0.5-1.9
	c-0.4-0.4-0.9-0.7-1.4-1c-0.6-0.3-1.3-0.4-1.9-0.4c-0.5,0-1,0-1.5,0.1c-0.1,0-0.1,0-0.2,0c-0.5-0.1-0.9-0.3-1.4-0.6
	c-0.8-0.4-1.5-1-1.9-1.8L19.1,23.1z M29.9,30.3c0-0.3,0-0.7,0.1-1c0.1-0.3,0.3-0.7,0.5-0.9c0,0,0,0,0,0.1c-0.1,0.5-0.2,0.9-0.1,1.4
	c0,0.1,0,0.3,0.1,0.4c0.1,0.2,0.3,0.4,0.6,0.4c0.2,0,0.5,0,0.7-0.1c0,0,0.1,0,0.1,0c-0.3-0.7-0.1-1.5,0.5-2c0,0,0,0.1,0,0.1
	c-0.1,0.3-0.1,0.7-0.1,1c0,0.4,0.2,0.7,0.6,0.9c0.1,0,0.2,0,0.2,0c0.1-0.1,0.3-0.1,0.4-0.2c0.5-0.3,1-0.8,1.2-1.4
	c0-0.1,0.1-0.1,0.2-0.1c0.7-0.2,1.4-0.5,2-0.9c0.2-0.1,0.3-0.3,0.5-0.4c0.2-0.3,0.4-0.6,0.5-0.9c0.2-0.6,0.2-1.2,0.1-1.8
	c-0.1-0.6-0.2-1.1-0.5-1.6c0,0,0-0.1-0.1-0.1l0,0l-0.1,0.1c-0.4,0.7-1,1.3-1.7,1.7c-0.5,0.3-1,0.5-1.5,0.6h-0.2
	c-0.3,0-0.6-0.1-0.8-0.1s-0.7,0-1.1,0c-0.5,0-1,0.2-1.4,0.4c-0.5,0.2-0.9,0.5-1.4,0.9c-0.2,0.2-0.4,0.4-0.5,0.7
	c-0.2,0.4-0.3,0.9-0.1,1.4c0,0.1,0,0.1,0.1,0.2c0.1-0.2,0.2-0.3,0.3-0.5s0.3-0.4,0.4-0.4c0,0,0,0.1,0,0.1c-0.1,0.3-0.2,0.5-0.3,0.8
	c-0.1,0.2-0.1,0.5,0,0.7C29.1,30,29.5,30.3,29.9,30.3z M37.5,35.9c0.5,0,0.9-0.1,1.4-0.3c0.7-0.2,1.3-0.7,1.8-1.3
	c0.5-0.7,0.7-1.5,0.7-2.3c0-0.5-0.1-1-0.3-1.4c-0.4-0.6-1-1.1-1.7-1.4c-0.4-0.1-0.8-0.2-1.2-0.1c-0.4,0.1-0.7,0.2-1,0.4
	c-1,0.6-1.7,1.5-2.1,2.5c-0.3,0.6-0.3,1.3-0.2,2c0.1,0.8,0.7,1.4,1.4,1.6C36.6,35.9,37,35.9,37.5,35.9L37.5,35.9z M19.2,35.9
	c0.4,0,0.9-0.1,1.3-0.2c0.6-0.2,1-0.7,1.2-1.3c0.2-0.7,0.2-1.4,0-2c-0.3-0.9-0.9-1.8-1.7-2.4c-0.4-0.4-0.9-0.6-1.4-0.8
	c-0.4-0.1-0.9-0.1-1.3,0c-0.2,0.1-0.4,0.2-0.6,0.3c-0.7,0.4-1.2,1-1.4,1.8c-0.1,0.5-0.1,1,0,1.5c0.1,0.7,0.4,1.3,0.9,1.8
	C16.9,35.4,18,35.9,19.2,35.9L19.2,35.9z M36.3,7c-0.1,0.5,0.3,0.9,0.8,0.9C37.5,8,37.9,7.7,38,7.2c0-0.1,0-0.1,0-0.2
	c-0.1-0.5-0.5-0.8-0.9-0.8C36.6,6.3,36.3,6.6,36.3,7z M18.5,7c0.1,0.5,0.5,0.8,0.9,0.8c0.4,0,0.7-0.4,0.8-0.8
	c-0.1-0.5-0.5-0.8-0.9-0.8C18.9,6.3,18.6,6.6,18.5,7z"/>
<path class="st0" d="M28.2,16l-0.1,0.1c-0.5,0.7-1.3,1.1-2.1,1.3c-0.5,0.1-1,0-1.5-0.2c-0.5-0.2-0.9-0.5-1.1-1
	c-0.1-0.2-0.2-0.4-0.2-0.6c0-0.1,0-0.2,0-0.3c0.1-0.3,0.4-0.4,0.6-0.4c0,0,0.1,0,0.1,0c0.1,0,0.2,0.1,0.2,0.2c0,0,0,0.1,0,0.1
	c0,0.1-0.1,0.1-0.1,0.2c-0.1,0.1-0.1,0.2-0.1,0.3c0,0.2,0.1,0.3,0.2,0.5c0.4,0.5,1.1,0.8,1.8,0.7c0.3,0,0.6-0.1,0.9-0.3
	c0.4-0.2,0.7-0.5,1-0.8c0.2-0.2,0.3-0.5,0.3-0.8c0.1-0.2-0.1-0.4-0.3-0.5c-0.6-0.3-1.2-0.7-1.7-1.1c-0.1-0.1-0.2-0.2-0.2-0.4
	c-0.1-0.2,0-0.4,0.2-0.5c0,0,0,0,0.1,0c0.2-0.1,0.4-0.1,0.6-0.2c0.6-0.1,1.2-0.2,1.8-0.2c0.5,0,1,0,1.5,0.2l0.3,0.1
	c0.1,0,0.1,0.1,0.2,0.1c0.2,0.1,0.2,0.4,0.1,0.6c-0.1,0.2-0.2,0.3-0.3,0.4c-0.4,0.5-0.9,0.8-1.5,1l-0.2,0.1c-0.1,0-0.1,0.1-0.1,0.2
	c0,0.1,0,0.2,0.1,0.3c0.2,0.5,0.5,0.9,0.9,1.2c0.4,0.3,1,0.5,1.5,0.4c0.3,0,0.6-0.1,0.9-0.2c0.3-0.1,0.6-0.4,0.7-0.7
	c0-0.1,0.1-0.1,0.1-0.2c0-0.1,0-0.3-0.1-0.4c-0.1-0.1-0.1-0.2,0-0.3c0.2-0.1,0.4-0.1,0.6,0.1c0,0,0,0,0,0.1c0.1,0.1,0.1,0.3,0.1,0.5
	c0,0.3-0.1,0.6-0.3,0.8c-0.3,0.5-0.8,0.8-1.4,0.9c-0.8,0.2-1.6,0.1-2.4-0.3C28.8,16.8,28.5,16.4,28.2,16L28.2,16z M26.7,12.9
	c0.2,0.1,3.2,0.1,3.4,0c0,0-0.1-0.1-0.1-0.1c-0.6-0.3-1.2-0.4-1.9-0.4c-0.4,0-0.8,0.1-1.2,0.3L26.7,12.9z"/>
<path class="st0" d="M33.4,10.7c0,0.6-0.4,1.1-0.9,1.4c-0.7,0.4-1.5,0.2-2-0.4C30,11,30,10,30.6,9.3c0.6-0.6,1.6-0.7,2.2,0
	c0.1,0.1,0.2,0.2,0.2,0.3C33.3,9.9,33.4,10.3,33.4,10.7z M31,11.7L31,11.7c0.4,0.2,0.7,0.3,1,0.3c0.3,0,0.5-0.2,0.6-0.4
	c0.3-0.4,0.3-0.9,0.2-1.3c0-0.1-0.1-0.1-0.1-0.2c0-0.1-0.1-0.1-0.2-0.1v0.1c0.1,0.3,0.1,0.5,0,0.8c-0.1,0.3-0.3,0.6-0.6,0.7
	c-0.2,0.1-0.5,0.1-0.8,0.1L31,11.7z M31.9,9.8c0-0.3-0.2-0.5-0.5-0.5c0,0,0,0,0,0c-0.3,0-0.5,0.2-0.6,0.5c0,0,0,0,0,0
	c0,0.3,0.2,0.6,0.5,0.6C31.7,10.4,31.9,10.1,31.9,9.8C31.9,9.8,31.9,9.8,31.9,9.8z"/>
<path class="st0" d="M24.7,8.8c0.5,0,1,0.2,1.3,0.7c0.6,0.8,0.4,1.8-0.3,2.4c-0.7,0.6-1.7,0.5-2.2-0.2c0,0,0,0,0,0
	c-0.6-0.7-0.5-1.9,0.2-2.5c0,0,0,0,0,0C24,8.9,24.4,8.8,24.7,8.8z M23.9,10c-0.1,0-0.1,0-0.2,0.1c-0.1,0.1-0.1,0.1-0.1,0.2
	c-0.1,0.4-0.1,0.8,0.1,1.2c0.2,0.3,0.5,0.5,0.8,0.4c0.3,0,0.6-0.1,0.9-0.2l0,0h-0.1c-0.2,0-0.3,0-0.5,0c-0.4-0.1-0.7-0.3-0.9-0.7
	c-0.1-0.2-0.1-0.3-0.1-0.5V10z M25.7,9.8c0-0.3-0.2-0.5-0.5-0.5c0,0,0,0,0,0c-0.3,0-0.5,0.2-0.6,0.5c0,0,0,0,0,0.1
	c0,0.3,0.2,0.6,0.5,0.6C25.5,10.3,25.7,10.1,25.7,9.8z"/>
<path class="st0" d="M31.7,7.3c0.3,0,0.6,0.1,0.8,0.3c0.1,0.1,0.1,0.1,0.2,0.2c0,0,0,0.1,0,0.1c0,0-0.1,0-0.1,0l0,0
	c-0.4-0.2-0.8-0.3-1.2-0.3c0,0-0.1,0-0.1,0c-0.1,0-0.1-0.1,0-0.2c0-0.1,0.1-0.1,0.2-0.1C31.5,7.3,31.6,7.3,31.7,7.3z"/>
<path class="st0" d="M24.8,7.3c0.2,0,0.3,0,0.5,0.1l0.1,0.1c0,0,0.1,0.1,0,0.1c0,0,0,0,0,0c0,0-0.1,0-0.1,0c-0.2,0-0.5,0-0.8,0
	c-0.2,0-0.3,0.1-0.4,0.2c-0.1,0-0.1,0-0.2,0c0,0,0-0.1,0-0.2c0-0.1,0.1-0.1,0.2-0.2C24.3,7.3,24.6,7.2,24.8,7.3z"/>
<path class="st0" d="M36.1,34.1c0-0.5,0.3-0.9,0.7-1.1c0.6-0.3,1.3-0.2,1.7,0.3c0.4,0.5,0.4,1.2,0,1.7c-0.5,0.6-1.4,0.6-2,0.1
	c-0.1-0.1-0.2-0.2-0.2-0.3C36.1,34.6,36.1,34.4,36.1,34.1z M37.5,35.1h0.3c0.5-0.1,0.9-0.6,0.8-1.2c0-0.2-0.1-0.3-0.2-0.4
	c-0.4-0.4-1-0.5-1.4-0.2c-0.3,0.2-0.4,0.5-0.5,0.8C36.4,34.6,36.9,35.1,37.5,35.1C37.4,35.1,37.5,35.1,37.5,35.1L37.5,35.1z"/>
<path class="st0" d="M38.4,31.2c0-0.4,0.2-0.8,0.5-1c0.1-0.1,0.2-0.2,0.4-0.2c0.2,0,0.4,0.1,0.5,0.2c0.1,0.2,0.2,0.4,0.2,0.7
	c0,0.3-0.1,0.5-0.3,0.8c-0.1,0.1-0.2,0.2-0.3,0.3c-0.3,0.1-0.6,0-0.7-0.2C38.5,31.6,38.4,31.4,38.4,31.2z"/>
<path class="st0" d="M40.9,32.4c0,0.3-0.2,0.7-0.4,0.9c-0.2,0.2-0.5,0.2-0.6,0c-0.1-0.1-0.1-0.1-0.1-0.2c-0.1-0.2-0.1-0.4-0.1-0.6
	c0-0.3,0.2-0.5,0.4-0.7l0.2-0.1c0.2-0.1,0.4-0.1,0.6,0.1c0,0,0,0,0,0C40.9,32,40.9,32.2,40.9,32.4z"/>
<path class="st0" d="M38,30.8c0,0.3-0.1,0.6-0.4,0.9c0,0,0,0-0.1,0c-0.2,0.2-0.5,0.2-0.7,0c0-0.1-0.1-0.1-0.1-0.2
	c-0.2-0.5,0-1,0.4-1.3c0.2-0.2,0.5-0.2,0.7,0c0,0,0.1,0.1,0.1,0.2C38,30.5,38,30.7,38,30.8z"/>
<path class="st0" d="M20.5,34.1c0,0.6-0.4,1-0.9,1.2c-0.6,0.2-1.3,0-1.6-0.5c-0.3-0.5-0.3-1.1,0.1-1.6c0.5-0.6,1.4-0.6,2-0.1
	c0.2,0.1,0.3,0.3,0.4,0.5C20.4,33.8,20.4,34,20.5,34.1z M19,35.1h0.2c0.5-0.1,0.9-0.6,0.8-1.2c-0.1-0.6-0.7-0.9-1.3-0.8
	c-0.1,0-0.2,0.1-0.3,0.1c-0.5,0.3-0.7,0.9-0.4,1.4c0,0,0,0,0,0C18.3,34.9,18.7,35.1,19,35.1L19,35.1z"/>
<path class="st0" d="M18.1,31.3c0,0.1,0,0.3-0.1,0.4c-0.1,0.3-0.4,0.4-0.7,0.3c0,0-0.1,0-0.1-0.1l-0.2-0.2c-0.3-0.4-0.4-0.9-0.3-1.3
	c0.1-0.2,0.2-0.4,0.5-0.4c0.1,0,0.2,0,0.3,0c0.2,0.1,0.3,0.2,0.4,0.3C18,30.6,18.1,31,18.1,31.3z"/>
<path class="st0" d="M15.6,32.3c0-0.1,0-0.3,0.1-0.4c0.1-0.2,0.3-0.3,0.5-0.3c0.1,0,0.1,0,0.1,0.1c0.1,0.1,0.2,0.1,0.2,0.2
	c0.2,0.3,0.3,0.6,0.3,1c0,0.1-0.1,0.2-0.1,0.3c-0.1,0.1-0.3,0.2-0.5,0.1c-0.1,0-0.3-0.1-0.4-0.3C15.7,32.9,15.6,32.6,15.6,32.3z"/>
<path class="st0" d="M18.5,30.8c0-0.2,0-0.3,0.1-0.5c0.1-0.2,0.4-0.3,0.6-0.2c0,0,0,0,0,0c0.1,0.1,0.3,0.2,0.3,0.4
	c0.2,0.3,0.2,0.6,0.1,0.9c0,0.1,0,0.1-0.1,0.2c-0.1,0.2-0.4,0.3-0.6,0.2c0,0,0,0-0.1,0c-0.2-0.1-0.4-0.4-0.5-0.7
	C18.5,31,18.5,30.9,18.5,30.8z"/>
<path class="st0" d="M18,46.8L18,46.8l-0.2-0.1h-0.1h-0.1c0,0,0,0,0,0.1l0,0h0.1h0.1h0.1L18,46.8c0.1,0,0.1,0.1,0.2,0.1
	c0,0,0.1,0.1,0.1,0.1c0,0.1,0.1,0.1,0.1,0.2c0,0.1,0,0.2,0,0.2c0,0.1-0.1,0.1-0.1,0.2c0,0-0.1,0.1-0.2,0.1c-0.1,0-0.1,0-0.2,0h-0.4
	h-0.2l-0.2,0c0.1-0.2,0.1-0.2,0.1-0.4c0.1,0,0.1,0,0.2,0.1c0.1,0,0.1,0,0.2,0h0.2h0.1c0,0,0,0,0-0.1l0,0h-0.1h-0.1h-0.1l-0.2-0.1
	c0,0-0.1,0-0.1-0.1c0,0-0.1-0.1-0.1-0.1c0,0,0-0.1,0-0.1c0-0.1,0-0.2,0-0.2c0-0.1,0.1-0.1,0.1-0.2c0-0.1,0.1-0.1,0.2-0.1
	c0.1,0,0.1-0.1,0.2-0.1h0.2h0.2H18h0.1L18,46.8z"/>
<path class="st0" d="M18.4,47c0-0.1,0-0.2,0-0.3c0-0.1,0.1-0.2,0.1-0.3c0.1-0.1,0.2-0.1,0.2-0.2c0.1-0.1,0.2-0.1,0.3-0.1
	c0.1,0,0.3,0,0.4,0c0.1,0,0.2,0.1,0.3,0.2l-0.3,0.3c0,0,0-0.1-0.1-0.1h-0.1h-0.1h-0.1l-0.2,0c0,0-0.1,0.1-0.1,0.1c0,0,0,0.1,0,0.1
	c0,0,0,0.1,0,0.2c0,0,0,0.1,0,0.2c0,0,0,0.1,0.1,0.1c0,0,0.1,0.1,0.1,0.1h0.1h0.1h0.1c0,0,0.1,0,0.1-0.1c0,0,0-0.1,0-0.1l0.4,0.2
	c0,0.1-0.1,0.1-0.1,0.2c0,0.1-0.1,0.1-0.1,0.1l-0.2,0.1c-0.1,0-0.1,0-0.2,0c-0.1,0-0.2,0-0.3,0c-0.1,0-0.2-0.1-0.3-0.2
	c-0.1-0.1-0.1-0.1-0.2-0.2C18.3,47.2,18.3,47.1,18.4,47z"/>
<path class="st0" d="M21.3,46c0,0.6,0.1,0.9,0.1,1.5h-0.4l0-0.5h-0.5l0,0.6H20c-0.1-0.6-0.1-0.9-0.1-1.5h0.4l0,0.6h0.5L20.8,46H21.3
	z"/>
<path class="st0" d="M22.3,47.1c0,0,0.1,0,0.1,0c0,0,0.1-0.1,0.1-0.1c0,0,0-0.1,0-0.1c0,0,0-0.1,0-0.2l0-0.8h0.4l0,0.8
	c0,0.1,0,0.2,0,0.3c0,0.1-0.1,0.2-0.1,0.3c-0.1,0.1-0.1,0.1-0.2,0.2c-0.1,0-0.2,0.1-0.3,0.1c-0.1,0-0.2,0-0.3,0
	c-0.1,0-0.2-0.1-0.2-0.2c-0.1-0.1-0.1-0.1-0.1-0.2c0-0.1-0.1-0.2-0.1-0.3L21.5,46h0.4l0.1,0.8c0,0,0,0.1,0,0.1c0,0,0,0.1,0.1,0.1
	c0,0,0.1,0.1,0.1,0.1C22.2,47.1,22.2,47.1,22.3,47.1z"/>
<path class="st0" d="M24.4,46.2h-0.5l0.1,1.2h-0.4l-0.1-1.2h-0.4v-0.4l1.3-0.1L24.4,46.2z"/>
<path class="st0" d="M24.5,47l0.7-0.9h-0.7v-0.3h1.2v0.3L25,47h0.7v0.4h-1.2L24.5,47z"/>
<path class="st0" d="M27,46.9v0.4h-1.1c0-0.6,0-0.9,0-1.5H27v0.4h-0.7v0.2h0.6v0.3h-0.6v0.2L27,46.9z"/>
<path class="st0" d="M27.6,46.5v0.8h-0.4v-1.5h0.3l0.6,0.8v-0.8h0.4v1.5h-0.3L27.6,46.5z"/>
<path class="st0" d="M29.9,47.2c-0.1,0.1-0.2,0.1-0.4,0.1c-0.1,0-0.2,0-0.3-0.1c-0.1,0-0.2-0.1-0.2-0.2c-0.1-0.1-0.1-0.1-0.2-0.2
	c0-0.1-0.1-0.2-0.1-0.3c0-0.1,0-0.2,0.1-0.3c0-0.1,0.1-0.2,0.2-0.2c0.1-0.1,0.2-0.1,0.3-0.2c0.1,0,0.2-0.1,0.3,0h0.2l0.2,0.1
	l0.1,0.1c0,0,0.1,0.1,0.1,0.1l-0.3,0.3c0-0.1-0.1-0.1-0.1-0.1c-0.1,0-0.1-0.1-0.2-0.1c0,0-0.1,0-0.1,0c0,0-0.1,0-0.1,0.1
	c0,0-0.1,0.1-0.1,0.1c0,0.1,0,0.2,0,0.3c0,0,0,0.1,0.1,0.1c0,0,0.1,0.1,0.1,0.1h0.1c0.1,0,0.2-0.1,0.3-0.2h-0.3v-0.3h0.6v0.8
	L29.9,47.2L29.9,47.2z"/>
<path class="st0" d="M31.5,47v0.4h-1.1v-1.5h1.1v0.4h-0.7v0.2h0.6v0.3h-0.6V47H31.5z"/>
<path class="st0" d="M31.7,47.3c0-0.6,0-0.9,0.1-1.5h0.4L32.2,47h0.7v0.4L31.7,47.3z"/>
<path class="st0" d="M33.7,47.1h-0.8v-0.4l0.8-0.9h0.4l-0.1,0.9h0.2v0.3h-0.2v0.3h-0.4L33.7,47.1z M33.7,46.8v-0.5l-0.4,0.5
	L33.7,46.8z"/>
<path class="st0" d="M34.4,47.5c0-0.6,0.1-0.9,0.1-1.5H35v0.6l0.5-0.5H36l-0.6,0.6c0.2,0.3,0.3,0.5,0.5,0.9h-0.5
	c-0.1-0.2-0.2-0.4-0.3-0.6L34.9,47v0.4H34.4z"/>
<path class="st0" d="M35.9,47.6c0-0.6,0.1-0.9,0.1-1.5h0.4c-0.1,0.6-0.1,0.9-0.1,1.5L35.9,47.6z"/>
<path class="st0" d="M36.6,47.7l0.2-1.5l0.6,0.1c0.1,0,0.2,0,0.3,0.1c0.1,0,0.2,0.1,0.2,0.2c0.1,0.1,0.1,0.2,0.1,0.3
	c0,0.1,0,0.2,0,0.3c0,0.1,0,0.2-0.1,0.3c-0.1,0.2-0.3,0.3-0.5,0.4c-0.1,0-0.2,0-0.3,0L36.6,47.7z M37.6,47c0-0.1,0-0.1,0-0.2
	c0-0.1,0-0.1-0.1-0.1c0,0-0.1-0.1-0.1-0.1c0,0-0.1,0-0.1,0h-0.2l-0.1,0.8h0.2c0,0,0.1,0,0.2,0l0.1-0.1l0.1-0.1
	C37.6,47.1,37.6,47.1,37.6,47L37.6,47z"/>
<path class="st0" d="M39.2,46.9c0,0-0.1-0.1-0.1-0.1l-0.2-0.1c0,0-0.1,0-0.1,0h-0.1c0,0,0,0,0,0.1l0,0l0,0h0.1l0.1,0.2
	c0.1,0,0.1,0.1,0.2,0.1l0.1,0.1c0,0,0.1,0.1,0.1,0.1c0,0.1,0,0.1,0,0.2c0,0.1,0,0.2-0.1,0.2c0,0.1-0.1,0.1-0.2,0.1
	c-0.1,0-0.1,0-0.2,0h-0.2c-0.1,0-0.1,0-0.2,0c-0.1,0-0.1,0-0.2-0.1l-0.2-0.1L38,47.7c0.1-0.1,0.1-0.2,0.2-0.3l0.2,0.1
	c0,0,0.1,0.1,0.2,0.1l0.2,0h0.1l0,0c0,0,0,0,0-0.1c0,0,0,0-0.1,0h-0.1h-0.1l-0.2-0.1l-0.1-0.1c0,0,0-0.1,0-0.1c0,0,0-0.1,0-0.2
	c0-0.1,0-0.1,0.1-0.2c0-0.1,0.1-0.1,0.2-0.2c0.1,0,0.1-0.1,0.2-0.1h0.3h0.2l0.2,0.1l0.1,0.1l0.1,0.1L39.2,46.9z"/>
<path class="st0" d="M7,44.7l-1-4c0.7-0.2,1.1-0.3,1.8-0.4c0.2,0,0.4,0,0.6,0c0.2,0,0.4,0.1,0.5,0.2c0.2,0.1,0.3,0.2,0.4,0.4
	c0.1,0.1,0.2,0.3,0.2,0.5c0,0.2,0,0.4,0,0.5c0,0.2-0.1,0.4-0.2,0.5c-0.1,0.2-0.2,0.3-0.4,0.4c-0.2,0.1-0.3,0.2-0.5,0.2l-0.7,0.2
	l0.3,1.2L7,44.7z M7.6,42.3l0.6-0.1c0.1,0,0.1-0.1,0.2-0.1c0-0.1,0-0.2,0-0.4c0-0.1-0.1-0.2-0.2-0.3c-0.1,0-0.2,0-0.2,0l-0.6,0.1
	L7.6,42.3z"/>
<path class="st0" d="M11.2,43.8c-0.3-1.6-0.5-2.4-0.8-4.1c0.8-0.2,1.2-0.2,2-0.3c0.2,0,0.4,0,0.6,0c0.2,0.1,0.4,0.1,0.5,0.3
	c0.1,0.1,0.3,0.3,0.4,0.4c0.1,0.2,0.2,0.3,0.2,0.5c0.1,0.5-0.1,0.9-0.4,1.3c0.4,0.5,0.7,0.8,1.1,1.4l-1.3,0.2
	c-0.4-0.5-0.6-0.7-0.9-1.1l-0.4,0.1l0.2,1.3L11.2,43.8z M11.9,41.4l0.7-0.1c0.1,0,0.1-0.1,0.2-0.2c0-0.1,0-0.2,0-0.3
	c0-0.1-0.1-0.2-0.2-0.3c-0.1-0.1-0.1-0.1-0.2-0.1l-0.7,0.1L11.9,41.4z"/>
<path class="st0" d="M17.5,42.9c-0.3,0-0.6,0-0.9-0.1c-0.3-0.1-0.5-0.2-0.7-0.4c-0.2-0.2-0.4-0.4-0.5-0.6c-0.1-0.2-0.2-0.5-0.3-0.8
	c-0.1-0.5,0.1-1.1,0.4-1.5c0.2-0.2,0.4-0.4,0.6-0.5c0.3-0.2,0.6-0.2,0.9-0.3c0.3,0,0.6,0,0.9,0.1c0.3,0.1,0.5,0.2,0.7,0.4
	c0.2,0.2,0.4,0.4,0.5,0.6c0.1,0.2,0.2,0.5,0.2,0.8c0,0.3,0,0.5-0.1,0.8c-0.1,0.3-0.2,0.5-0.4,0.7c-0.2,0.2-0.4,0.4-0.6,0.5
	C18.1,42.7,17.8,42.8,17.5,42.9z M16.3,40.9c0,0.1,0.1,0.3,0.1,0.4c0.1,0.1,0.1,0.2,0.2,0.3c0.1,0.1,0.2,0.2,0.3,0.2
	c0.1,0,0.3,0,0.4,0c0.2,0,0.3-0.1,0.4-0.2c0.1-0.1,0.2-0.2,0.3-0.3c0.1-0.1,0.1-0.2,0.1-0.4c0-0.1,0-0.3,0-0.4c0-0.1,0-0.3-0.1-0.4
	C18.1,40.1,18,40,17.9,40c-0.1-0.1-0.2-0.2-0.3-0.2c-0.1,0-0.3,0-0.4,0c-0.2,0-0.3,0.1-0.4,0.2c-0.1,0.1-0.2,0.2-0.3,0.3
	c-0.1,0.1-0.1,0.2-0.1,0.4C16.3,40.7,16.3,40.8,16.3,40.9L16.3,40.9z"/>
<path class="st0" d="M23.8,39.2l-1.2,0.1l0.2,3.1l-1.1,0.1l-0.2-3.1c-0.5,0-0.8,0-1.2,0.1l-0.1-1c1.5-0.1,2.2-0.2,3.7-0.3L23.8,39.2
	z"/>
<path class="st0" d="M27.9,41.2v1c-1.2,0-1.8,0-3,0.1l-0.1-4.1c1.2,0,1.8-0.1,3-0.1v1c-0.7,0-1.1,0-1.8,0v0.6h1.6v0.9H26v0.7
	L27.9,41.2z"/>
<path class="st0" d="M28.8,40.1c0-0.3,0.1-0.5,0.2-0.7c0.1-0.2,0.3-0.5,0.4-0.7c0.2-0.2,0.4-0.4,0.7-0.5c0.3-0.1,0.7-0.2,1-0.2
	c0.4,0,0.8,0.1,1.1,0.3c0.3,0.2,0.5,0.4,0.7,0.7l-0.9,0.6c0-0.1-0.1-0.2-0.1-0.3c-0.1-0.1-0.1-0.1-0.2-0.2c-0.2-0.1-0.3-0.1-0.5-0.1
	c-0.2,0-0.3,0-0.4,0.1c-0.1,0.1-0.2,0.1-0.3,0.3c-0.1,0.1-0.1,0.2-0.2,0.3c0,0.1-0.1,0.3-0.1,0.4c0,0.1,0,0.3,0.1,0.4
	c0.1,0.3,0.3,0.5,0.5,0.6c0.1,0.1,0.3,0.1,0.4,0.1c0.1,0,0.2,0,0.3,0c0.1,0,0.2,0,0.2-0.1c0.1,0,0.1-0.1,0.2-0.2
	c0.1-0.1,0.1-0.1,0.2-0.2l0.9,0.6c-0.1,0.2-0.2,0.3-0.3,0.4c-0.1,0.1-0.3,0.2-0.5,0.3c-0.2,0.1-0.3,0.1-0.5,0.2
	c-0.2,0-0.4,0.1-0.5,0c-0.3,0-0.6-0.1-0.9-0.2c-0.2-0.1-0.5-0.3-0.7-0.5c-0.2-0.2-0.3-0.4-0.4-0.7C28.9,40.6,28.8,40.4,28.8,40.1z"
	/>
<path class="st0" d="M37.4,39.5l-1.2-0.1c-0.1,1.3-0.2,1.9-0.3,3.1l-1.2-0.1c0.1-1.3,0.1-1.9,0.2-3.1l-1.3-0.1l0.1-1
	c1.5,0.1,2.2,0.2,3.7,0.3L37.4,39.5z"/>
<path class="st0" d="M38,42.7c0.2-1.7,0.3-2.5,0.4-4.1l1.2,0.1c-0.2,1.6-0.3,2.5-0.5,4.1L38,42.7z"/>
<path class="st0" d="M42,41.2l-0.3,2L40.6,43c0.2-1.6,0.3-2.5,0.6-4.1l0.9,0.1c0.6,0.9,0.8,1.4,1.4,2.3c0.1-0.8,0.2-1.2,0.3-2.1
	l1.2,0.2l-0.7,4.1l-0.9-0.2C42.8,42.6,42.6,42.1,42,41.2z"/>
<path class="st0" d="M47.5,44.3c-0.3-0.1-0.6-0.2-0.8-0.3c-0.2-0.2-0.4-0.4-0.6-0.6c-0.1-0.2-0.2-0.5-0.3-0.7
	c-0.1-0.3-0.1-0.5,0-0.8c0.1-0.3,0.2-0.5,0.3-0.7c0.2-0.2,0.4-0.4,0.6-0.6c0.2-0.2,0.5-0.3,0.8-0.3c0.3-0.1,0.6-0.1,0.9,0
	c0.3,0.1,0.6,0.2,0.8,0.4c0.2,0.2,0.4,0.4,0.6,0.6c0.1,0.2,0.2,0.5,0.3,0.8c0,0.3,0,0.5,0,0.8c-0.1,0.3-0.2,0.5-0.3,0.7
	c-0.2,0.2-0.4,0.4-0.6,0.5c-0.2,0.1-0.5,0.2-0.8,0.3C48.1,44.4,47.8,44.3,47.5,44.3z M46.9,42c0,0.1,0,0.3,0,0.4
	c0,0.1,0,0.3,0.1,0.4c0.1,0.1,0.1,0.2,0.2,0.3c0.1,0.1,0.3,0.1,0.4,0.2c0.1,0,0.3,0,0.4,0c0.1,0,0.2-0.1,0.3-0.2
	c0.1-0.1,0.2-0.2,0.3-0.3c0.1-0.1,0.1-0.2,0.2-0.4c0-0.1,0-0.3,0-0.4c0-0.1,0-0.3-0.1-0.4c-0.1-0.1-0.1-0.2-0.3-0.3
	c-0.1-0.1-0.3-0.2-0.4-0.2c-0.1,0-0.3,0-0.5,0c-0.1,0-0.3,0.1-0.3,0.2c-0.1,0.1-0.2,0.2-0.3,0.3C47,41.7,46.9,41.9,46.9,42z"/>
<path class="st0" d="M72.7,35.7c-0.2-0.1-0.5-0.3-0.8-0.4c-0.2-0.1-0.5-0.2-0.7-0.3C71,35,70.7,35,70.5,35c-0.2,0-0.3,0-0.5,0.1
	c-0.1,0.1-0.2,0.2-0.2,0.3c0,0.1,0,0.2,0.1,0.3c0.1,0.1,0.2,0.2,0.3,0.2c0.2,0.1,0.3,0.1,0.5,0.2l0.7,0.2c0.4,0.1,0.7,0.2,1.1,0.4
	c0.3,0.1,0.6,0.3,0.8,0.5c0.2,0.2,0.4,0.4,0.5,0.7c0.1,0.3,0.2,0.7,0.2,1c0,0.4-0.1,0.9-0.3,1.3c-0.2,0.3-0.4,0.6-0.7,0.9
	c-0.3,0.2-0.6,0.4-1,0.5c-0.4,0.1-0.8,0.1-1.2,0.1c-0.3,0-0.7,0-1-0.1c-0.3-0.1-0.7-0.1-1-0.2c-0.3-0.1-0.6-0.2-0.9-0.3
	c-0.3-0.1-0.6-0.3-0.8-0.4l1-2c0.3,0.2,0.6,0.3,0.9,0.5c0.3,0.1,0.6,0.2,0.9,0.3c0.3,0.1,0.7,0.1,1,0.1c0.2,0,0.4,0,0.5-0.1
	c0.1-0.1,0.2-0.2,0.2-0.3c0-0.1-0.1-0.2-0.2-0.3c-0.1-0.1-0.3-0.2-0.4-0.2l-0.6-0.2c-0.2-0.1-0.5-0.1-0.7-0.2
	c-0.3-0.1-0.7-0.2-1-0.4c-0.2-0.1-0.5-0.3-0.7-0.5c-0.2-0.2-0.3-0.4-0.4-0.6c-0.1-0.3-0.1-0.5-0.1-0.8c0-0.4,0.1-0.9,0.3-1.3
	c0.2-0.3,0.4-0.7,0.7-0.9c0.3-0.2,0.6-0.4,1-0.5c0.4-0.1,0.8-0.2,1.2-0.2c0.3,0,0.6,0,0.9,0.1c0.3,0.1,0.6,0.1,0.8,0.2
	c0.3,0.1,0.5,0.2,0.8,0.3l0.7,0.3L72.7,35.7z"/>
<path class="st0" d="M74.5,37.2c0-0.5,0.1-1.1,0.3-1.5c0.2-0.5,0.5-1,0.9-1.4c0.4-0.4,0.8-0.8,1.4-1c0.6-0.3,1.2-0.4,1.8-0.4
	c0.7,0,1.5,0.2,2.1,0.5c0.6,0.3,1,0.8,1.3,1.3L80.5,36c-0.1-0.2-0.2-0.4-0.3-0.5c-0.1-0.1-0.3-0.2-0.4-0.3c-0.2-0.1-0.3-0.1-0.5-0.2
	c-0.2,0-0.3,0-0.5,0c-0.3,0-0.6,0.1-0.9,0.2c-0.2,0.1-0.4,0.3-0.6,0.5c-0.2,0.2-0.3,0.5-0.3,0.7c-0.1,0.3-0.1,0.5-0.1,0.8
	c0,0.3,0,0.6,0.1,0.8c0.1,0.3,0.2,0.5,0.4,0.7c0.3,0.4,0.9,0.7,1.4,0.7c0.2,0,0.3,0,0.5,0c0.2,0,0.3-0.1,0.5-0.2
	c0.2-0.1,0.3-0.2,0.4-0.3c0.1-0.1,0.2-0.3,0.3-0.5l1.9,1.1c-0.1,0.3-0.3,0.6-0.6,0.8c-0.3,0.2-0.6,0.4-0.9,0.5
	c-0.3,0.2-0.7,0.3-1.1,0.4c-0.4,0.1-0.7,0.1-1.1,0.1c-0.6,0-1.2-0.1-1.7-0.4c-1-0.5-1.8-1.4-2.2-2.4C74.6,38.2,74.5,37.7,74.5,37.2z
	"/>
<path class="st0" d="M90.8,33v8.5h-2.3v-3.4h-2.9v3.3h-2.3V33h2.3v3.1h2.9V33H90.8z"/>
<path class="st0" d="M96,39.5c0.2,0,0.5-0.1,0.7-0.2c0.2-0.1,0.4-0.3,0.5-0.5c0.1-0.2,0.2-0.4,0.3-0.7c0.1-0.3,0.1-0.5,0.1-0.8V33
	h2.3v4.4c0,0.5-0.1,1.1-0.2,1.6c-0.1,0.5-0.4,0.9-0.7,1.3c-0.3,0.4-0.7,0.7-1.2,0.9c-0.5,0.2-1.1,0.3-1.7,0.3
	c-0.6,0-1.2-0.1-1.7-0.3c-0.5-0.2-0.9-0.5-1.2-0.9c-0.3-0.4-0.6-0.8-0.7-1.3c-0.1-0.5-0.2-1.1-0.2-1.6V33h2.3v4.4
	c0,0.3,0,0.5,0.1,0.8c0,0.2,0.1,0.5,0.3,0.7c0.1,0.2,0.3,0.3,0.5,0.5C95.5,39.4,95.7,39.5,96,39.5z"/>
<path class="st0" d="M107.8,35h-2.4v6.5H103V35h-2.5v-2h7.3V35z"/>
<path class="st0" d="M108.2,39.7l4-4.7h-3.8v-2h6.5v1.7l-3.7,4.7h3.8v2h-6.8L108.2,39.7z"/>
<path class="st0" d="M122.2,39.4v2h-6.1V33h6v2h-3.6v1.2h3.1v1.9h-3.1v1.3L122.2,39.4z"/>
<path class="st0" d="M125.6,37.3v4.2h-2.3V33h1.8l3.4,4.3V33h2.4v8.5h-1.9L125.6,37.3z"/>
<path class="st0" d="M138.1,40.8c-0.6,0.5-1.3,0.8-2.1,0.8c-0.5,0-1.1-0.1-1.6-0.3c-0.5-0.2-0.9-0.5-1.3-0.8
	c-0.4-0.4-0.7-0.9-0.9-1.4c-0.2-0.6-0.3-1.2-0.3-1.9c0-0.6,0.1-1.1,0.3-1.7c0.4-1,1.3-1.8,2.3-2.2c0.5-0.2,1.1-0.3,1.7-0.3
	c0.4,0,0.7,0,1.1,0.1c0.7,0.2,1.3,0.5,1.8,1c0.2,0.2,0.4,0.5,0.6,0.8l-1.7,1.3c-0.2-0.3-0.4-0.6-0.8-0.8c-0.3-0.2-0.7-0.3-1.1-0.3
	c-0.3,0-0.5,0.1-0.8,0.2c-0.2,0.1-0.4,0.3-0.6,0.5c-0.2,0.2-0.3,0.5-0.4,0.7c-0.1,0.3-0.2,0.6-0.1,0.9c0,0.3,0,0.6,0.1,0.9
	c0.1,0.3,0.2,0.5,0.4,0.7c0.2,0.2,0.4,0.3,0.6,0.5c0.3,0.1,0.5,0.2,0.8,0.2c0.7,0,1.4-0.3,1.8-0.8h-1.5v-1.7h3.5v4.5h-1.9V40.8z"/>
<path class="st0" d="M147.3,39.4v2h-6.1V33h6v2h-3.6v1.2h3.1v1.9h-3.1v1.3L147.3,39.4z"/>
<path class="st0" d="M148.4,41.5V33h2.3v6.5h3.9v2H148.4z"/>
<path class="st0" d="M157.9,42v-1.5h-3.1v-2l3.8-4.8h1.6v4.8h1.1v2h-1.1V42H157.9z M157.1,38.5h1.1V37L157.1,38.5z"/>
<path class="st0" d="M162.4,41.5V33h2.3v3.2l2.6-3.2h2.6l-3.1,3.8l3.3,4.7h-2.7l-2.1-3.1l-0.6,0.7v2.5L162.4,41.5z"/>
<path class="st0" d="M170.7,41.5V33h2.3v8.5L170.7,41.5z"/>
<path class="st0" d="M174.5,41.5V33h3.3c0.6,0,1.3,0.1,1.9,0.3c0.5,0.2,1,0.5,1.3,0.9c0.4,0.4,0.6,0.8,0.8,1.3
	c0.4,1.1,0.4,2.3,0,3.4c-0.2,0.5-0.5,1-0.9,1.3c-0.4,0.4-0.9,0.7-1.4,0.9c-0.6,0.2-1.2,0.3-1.8,0.3L174.5,41.5z M179.7,37.2
	c0-0.3,0-0.6-0.1-0.9c-0.1-0.3-0.2-0.5-0.4-0.7c-0.2-0.2-0.4-0.3-0.6-0.5c-0.3-0.1-0.5-0.2-0.8-0.2h-0.9v4.4h0.9
	c0.3,0,0.6-0.1,0.8-0.2c0.2-0.1,0.4-0.3,0.6-0.5c0.2-0.2,0.3-0.4,0.4-0.7C179.6,37.8,179.7,37.5,179.7,37.2z"/>
<path class="st0" d="M188.2,35.7c-0.2-0.1-0.5-0.3-0.7-0.4c-0.2-0.1-0.5-0.2-0.7-0.3c-0.3-0.1-0.5-0.1-0.8-0.1c-0.2,0-0.3,0-0.5,0.1
	c-0.1,0.1-0.2,0.2-0.2,0.3c0,0.1,0,0.2,0.1,0.3c0.1,0.1,0.2,0.2,0.3,0.2c0.2,0.1,0.3,0.1,0.5,0.2l0.7,0.2c0.4,0.1,0.7,0.2,1.1,0.4
	c0.3,0.1,0.6,0.3,0.8,0.5c0.2,0.2,0.4,0.4,0.5,0.7c0.1,0.3,0.2,0.7,0.2,1c0,0.4-0.1,0.9-0.3,1.3c-0.2,0.3-0.4,0.6-0.7,0.8
	c-0.3,0.2-0.6,0.4-1,0.5c-0.4,0.1-0.8,0.1-1.2,0.1c-0.3,0-0.7,0-1-0.1c-0.3-0.1-0.7-0.1-1-0.2c-0.3-0.1-0.6-0.2-0.9-0.3
	c-0.3-0.1-0.6-0.3-0.8-0.4l1-2c0.3,0.2,0.6,0.3,0.9,0.5c0.3,0.1,0.6,0.2,0.9,0.3c0.3,0.1,0.7,0.1,1,0.1c0.2,0,0.4,0,0.5-0.1
	c0.1-0.1,0.2-0.2,0.1-0.3c0-0.1-0.1-0.2-0.1-0.3c-0.1-0.1-0.3-0.2-0.4-0.2l-0.6-0.2c-0.2-0.1-0.5-0.1-0.7-0.2
	c-0.3-0.1-0.7-0.2-1-0.4c-0.2-0.1-0.5-0.3-0.7-0.5c-0.2-0.2-0.3-0.4-0.4-0.6c-0.1-0.3-0.1-0.5-0.1-0.8c0-0.4,0.1-0.9,0.3-1.3
	c0.2-0.4,0.4-0.7,0.7-0.9c0.3-0.2,0.6-0.4,1-0.5c0.4-0.1,0.8-0.2,1.2-0.2c0.3,0,0.6,0,1,0.1c0.3,0.1,0.6,0.1,0.9,0.2
	c0.3,0.1,0.5,0.2,0.8,0.3l0.6,0.3L188.2,35.7z"/>
<path class="st0" d="M68,28.5v-14h6c0.7,0,1.3,0.1,1.9,0.4c0.6,0.3,1.1,0.6,1.5,1.1c0.4,0.5,0.8,1,1,1.5c0.2,0.6,0.4,1.2,0.4,1.8
	c0,0.6-0.1,1.2-0.3,1.8c-0.2,0.6-0.5,1.1-0.9,1.6c-0.4,0.5-0.9,0.8-1.5,1.1c-0.6,0.3-1.2,0.4-1.9,0.4h-2.3v4.3L68,28.5z M71.9,20.8
	h2c0.3,0,0.5-0.1,0.7-0.3c0.2-0.3,0.4-0.8,0.3-1.2c0-0.4-0.1-0.9-0.3-1.2c-0.2-0.2-0.4-0.3-0.7-0.3h-1.9V20.8z"/>
<path class="st0" d="M80.3,28.5v-14h6.4c0.7,0,1.3,0.1,1.9,0.4c0.6,0.3,1.1,0.6,1.5,1.1c0.4,0.5,0.8,1,1,1.5
	c0.2,0.6,0.4,1.2,0.4,1.8c0,0.8-0.2,1.6-0.5,2.3c-0.3,0.7-0.9,1.3-1.5,1.7l3,5.1H88l-2.5-4.3h-1.4v4.3H80.3z M84.1,20.8h2.4
	c0.3,0,0.5-0.2,0.7-0.4c0.2-0.3,0.3-0.7,0.3-1.1c0-0.4-0.1-0.8-0.3-1.1c-0.2-0.2-0.4-0.4-0.7-0.4h-2.3V20.8z"/>
<path class="st0" d="M99.7,28.6c-1,0-2-0.2-2.9-0.6c-0.8-0.4-1.6-0.9-2.2-1.6c-1.3-1.3-2-3.1-2-4.9c0-0.9,0.2-1.8,0.5-2.7
	c0.3-0.8,0.9-1.6,1.5-2.3c0.7-0.7,1.4-1.2,2.3-1.6c0.9-0.4,1.9-0.6,2.9-0.6c1,0,2,0.2,2.9,0.6c1.7,0.8,3,2.2,3.7,3.9
	c0.3,0.8,0.5,1.7,0.5,2.6c0,0.9-0.2,1.8-0.5,2.6c-0.3,0.8-0.8,1.6-1.5,2.2c-0.6,0.7-1.4,1.2-2.3,1.6
	C101.7,28.4,100.7,28.6,99.7,28.6z M96.5,21.5c0,0.5,0.1,0.9,0.2,1.4c0.1,0.4,0.3,0.8,0.6,1.2c0.3,0.3,0.6,0.6,1,0.8
	c0.9,0.4,2,0.4,2.9,0c0.4-0.2,0.7-0.5,1-0.9c0.3-0.4,0.5-0.8,0.6-1.2c0.3-0.9,0.3-1.8,0-2.7c-0.1-0.4-0.3-0.8-0.6-1.2
	c-0.3-0.3-0.6-0.6-1-0.8c-0.4-0.2-0.9-0.3-1.4-0.3c-0.5,0-1,0.1-1.4,0.3c-0.4,0.2-0.7,0.5-1,0.8c-0.3,0.4-0.5,0.8-0.6,1.2
	C96.6,20.6,96.5,21.1,96.5,21.5z"/>
<path class="st0" d="M119.1,17.9h-4v10.6h-3.8V17.9h-4v-3.3h11.9L119.1,17.9z"/>
<path class="st0" d="M130.5,25.1v3.4h-10v-14h9.8v3.3h-6v2h5.1v3.1h-5.1v2.2L130.5,25.1z"/>
<path class="st0" d="M131.3,21.4c0-0.9,0.2-1.7,0.5-2.5c0.3-0.8,0.8-1.6,1.4-2.2c0.6-0.7,1.4-1.2,2.3-1.6c2.1-0.9,4.5-0.8,6.5,0.2
	c0.9,0.5,1.7,1.3,2.2,2.2l-2.9,2.1c-0.2-0.6-0.7-1.1-1.2-1.4c-0.3-0.1-0.5-0.2-0.8-0.3c-0.3-0.1-0.5-0.1-0.8-0.1
	c-0.5,0-1,0.1-1.4,0.3c-0.4,0.2-0.7,0.5-1,0.9c-0.3,0.4-0.5,0.8-0.6,1.2c-0.1,0.4-0.2,0.9-0.2,1.3c0,0.5,0.1,0.9,0.2,1.4
	c0.1,0.4,0.3,0.8,0.6,1.2c0.3,0.3,0.6,0.6,1,0.8c0.4,0.2,0.9,0.3,1.4,0.3c0.3,0,0.5,0,0.8-0.1c0.3-0.1,0.5-0.2,0.8-0.3
	c0.3-0.1,0.5-0.3,0.7-0.5c0.2-0.2,0.4-0.5,0.5-0.8l3.1,1.9c-0.2,0.5-0.6,1-1,1.4c-0.4,0.4-0.9,0.7-1.5,1c-0.6,0.3-1.1,0.5-1.8,0.6
	c-0.6,0.1-1.2,0.2-1.8,0.2c-1,0-2-0.2-2.9-0.6c-0.8-0.4-1.6-1-2.2-1.6c-0.6-0.7-1.1-1.5-1.4-2.3C131.5,23.2,131.3,22.3,131.3,21.4z"
	/>
<path class="st0" d="M156.6,17.9h-4v10.6h-3.8V17.9h-4v-3.3h11.9L156.6,17.9z"/>
<path class="st0" d="M158,28.5v-14h3.8v14H158z"/>
<path class="st0" d="M168,21.6v6.9h-3.8v-14h3l5.6,7.1v-7.1h3.8v14h-3.1L168,21.6z"/>
<path class="st0" d="M185.4,28.6c-1,0-2-0.2-2.9-0.6c-0.8-0.4-1.6-0.9-2.2-1.6c-1.2-1.3-1.9-3.1-1.9-4.9c0-0.9,0.2-1.8,0.5-2.7
	c0.3-0.8,0.9-1.6,1.5-2.3c0.6-0.7,1.4-1.2,2.3-1.6c0.9-0.4,1.9-0.6,2.9-0.6c1,0,2,0.2,2.9,0.6c1.7,0.8,3,2.2,3.6,3.9
	c0.3,0.8,0.5,1.7,0.5,2.6c0,0.9-0.2,1.8-0.6,2.7c-0.3,0.8-0.8,1.6-1.5,2.2c-0.6,0.7-1.4,1.2-2.2,1.6
	C187.3,28.4,186.3,28.6,185.4,28.6z M182.2,21.5c0,0.5,0.1,0.9,0.2,1.4c0.1,0.4,0.3,0.8,0.6,1.2c0.3,0.3,0.6,0.6,1,0.8
	c0.4,0.2,0.9,0.3,1.4,0.3c0.5,0,1-0.1,1.4-0.3c0.4-0.2,0.7-0.5,1-0.9c0.3-0.4,0.5-0.8,0.6-1.2c0.3-0.9,0.3-1.8,0-2.7
	c-0.1-0.4-0.3-0.8-0.6-1.2c-0.3-0.3-0.6-0.6-1-0.8c-0.4-0.2-0.9-0.3-1.4-0.3c-0.5,0-1,0.1-1.4,0.3c-0.4,0.2-0.7,0.5-1,0.8
	c-0.3,0.4-0.5,0.8-0.6,1.2C182.3,20.6,182.2,21.1,182.2,21.5z"/>
</svg>
