<svg id="Ebene_1" data-name="Ebene 1" xmlns="http://www.w3.org/2000/svg" viewBox="0 0 192.47 52.44"><defs><style>.cls-1{fill:#1d458b;}.cls-2{fill:#f16445;}.cls-3{fill:#1d458c;}.cls-4{fill:#f26545;}</style></defs><title>01zzzzz</title><path class="cls-1" d="M36,48.47l-.1.08a25.6,25.6,0,0,1-6.8,3.68l-.59.19a.33.33,0,0,1-.22,0,19.09,19.09,0,0,1-7.66-3.83l-.13-.11.13,0,1.25-.1a.38.38,0,0,1,.25.08,18,18,0,0,0,6.15,2.79.42.42,0,0,0,.27,0,20.5,20.5,0,0,0,2.92-1.18,25.68,25.68,0,0,0,2.84-1.62.35.35,0,0,1,.26-.07l1.32.09Z" transform="translate(-0.09)"/><path class="cls-1" d="M13.52,36.16a43.3,43.3,0,0,1-2.33-6.83l.11,0c.25.07.51.15.77.21a.21.21,0,0,1,.18.17c.24.93.52,1.85.83,2.76.39,1.15.83,2.29,1.32,3.4a1,1,0,0,1,.06.14Z" transform="translate(-0.09)"/><path class="cls-1" d="M45.44,29.31a25.48,25.48,0,0,1-1.82,6.86L42.7,36l0-.1a23.59,23.59,0,0,0,1.5-4.77c.1-.49.18-1,.26-1.5a.14.14,0,0,1,.11-.13c.26-.06.52-.14.77-.21Z" transform="translate(-0.09)"/><path class="cls-1" d="M14.08,9.59l0,.09-.39,1.42a.43.43,0,0,1-.18.26,13.14,13.14,0,0,0-2.11,1.76c0,.05-.1.09-.18.06l-1.06-.44L10,12.69a12,12,0,0,1,1.51-1.44A15.06,15.06,0,0,1,14.08,9.59Z" transform="translate(-0.09)"/><path class="cls-1" d="M45.35,13.19l-.2-.21a12.08,12.08,0,0,0-2-1.69.36.36,0,0,1-.16-.22c-.12-.49-.26-1-.39-1.47v0a13,13,0,0,1,2.14,1.37,12.7,12.7,0,0,1,1.84,1.75A8.31,8.31,0,0,1,45.35,13.19Z" transform="translate(-0.09)"/><path class="cls-1" d="M18.31,37.25l-.36,0-.71.06-.64.06-.73.08-.69.08-.66.07-.74.09-.81.11-.85.12-.88.13-1,.16-1.38.25c-.7.15-1.4.29-2.1.45a9.62,9.62,0,0,0-1.48.43,4.19,4.19,0,0,0-1.19.7,1.9,1.9,0,0,0-.67,1.07,1.76,1.76,0,0,0,0,.79c.14.61.27,1.22.4,1.83a20,20,0,0,0,.7,2.63,6.71,6.71,0,0,0,.71,1.51,2.85,2.85,0,0,0,1,1,3.1,3.1,0,0,0,.89.29,5,5,0,0,0,.95.12c.33,0,.66,0,1,0a9.28,9.28,0,0,0,2.5-.47,2.31,2.31,0,0,0,.61-.3.33.33,0,0,0,0-.57,1.74,1.74,0,0,0-.55-.21l-.34-.1c-.23-.09-.27-.24-.11-.42a2.75,2.75,0,0,1,.26-.22c.05-.05.12-.09.16-.14s.05-.13,0-.15a1.14,1.14,0,0,0-.45,0l-3,.86-.16,0s0,0-.05,0v0H8l-.15,0,0,0,0,0H8l-.11.06v0H8.1L7.89,48v0l.42,0v0l-.32,0a1.66,1.66,0,0,0,.69.16l-.59,0a1.72,1.72,0,0,0,.85.07v0c-.13,0-.26.08-.39.1a3.26,3.26,0,0,1-1.91-.14,1.89,1.89,0,0,1-.51-.26.49.49,0,0,1-.19-.26.41.41,0,0,1,.13-.4A2.29,2.29,0,0,1,6.58,47,5.69,5.69,0,0,1,8,46.48c.81-.23,1.64-.41,2.47-.56l1.88-.35,1.78-.28,1.29-.2,1.27-.17,1.25-.16,1.11-.13,1.05-.13.86-.08.92-.1.84-.07.91-.08.62-.05.91-.06.55,0,1-.06h.44c.59,0,1.19,0,1.78,0,.4,0,.81,0,1.21,0l1,0,1.13.08.81.06.89.08.68.06.78.08.74.07.7.08.65.08.79.09.72.09.81.11.76.1.94.13,1,.15.93.14,1.36.24c.55.1,1.09.19,1.63.31s1.27.28,1.91.43a7.28,7.28,0,0,1,1.34.45,2.77,2.77,0,0,1,.66.4,1,1,0,0,1,.22.24.34.34,0,0,1,0,.45,1.28,1.28,0,0,1-.56.33,3.21,3.21,0,0,1-1,.23,3.54,3.54,0,0,1-.65,0,6.17,6.17,0,0,1-.62-.11l-.11,0h.42a2.79,2.79,0,0,0,.4-.07v0h-.58a2.67,2.67,0,0,0,.68-.15v0h-.16a.53.53,0,0,1-.16,0l.4,0h0l-.2-.08c.1,0,.21,0,.31-.07l-.25-.06h0l.17,0a.15.15,0,0,0,.07,0l-.05-.07-.09,0-3.14-.88a1.13,1.13,0,0,0-.45,0c-.09,0-.11.08,0,.15l.16.14a1.67,1.67,0,0,1,.28.25c.13.14.1.28-.08.36s-.29.09-.44.14a4.13,4.13,0,0,0-.45.17.39.39,0,0,0-.22.25.34.34,0,0,0,.11.33,2,2,0,0,0,.61.31,8.3,8.3,0,0,0,1.47.36,9.45,9.45,0,0,0,1.84.14A5.41,5.41,0,0,0,50.14,49a2.44,2.44,0,0,0,.93-.69A5.69,5.69,0,0,0,52,46.63a16.94,16.94,0,0,0,.67-2.34l.54-2.5a1.62,1.62,0,0,0-.36-1.39,3.53,3.53,0,0,0-1.3-.93A7.75,7.75,0,0,0,50,39c-.88-.19-1.75-.38-2.63-.55-.63-.13-1.26-.23-1.89-.33l-1.32-.19-1.1-.15-1-.12-.92-.1-.84-.1-.76-.07-.81-.08-.36,0L39.3,37a5.9,5.9,0,0,0,1.22-.5.15.15,0,0,1,.09,0l.73.09.91.12.77.1.82.12.8.12,1,.14,1.08.18,1.28.22,1.43.26c.67.13,1.33.25,2,.4s1.18.28,1.77.42a2.22,2.22,0,0,1,.87.43,1.85,1.85,0,0,1,.63,1,2.88,2.88,0,0,1,0,1.17c-.13.75-.25,1.5-.39,2.24a27.55,27.55,0,0,1-.77,3c-.16.51-.33,1-.52,1.53a3.21,3.21,0,0,1-1.77,1.81,5,5,0,0,1-1.42.4,8.56,8.56,0,0,1-1.52.06,9.87,9.87,0,0,1-1.79-.24,10.06,10.06,0,0,1-1.6-.46,5.42,5.42,0,0,1-1.34-.72,2.17,2.17,0,0,1-.55-.58A.51.51,0,0,1,43,47.8a.69.69,0,0,1,.29-.27,2.4,2.4,0,0,1,.69-.21l.14,0c.11,0,.15-.09.09-.2l-.22-.32a1.27,1.27,0,0,1-.13-.19c0-.09,0-.14.09-.16l.09,0-.08,0a16.25,16.25,0,0,0-1.83-.44l-1.21-.2-1-.13-1-.13-.72-.07-.78-.08-.7-.06L36,45.19l-.63,0-.71,0-.49,0L33.3,45l-.55,0-1,0-.69,0-1.28-.06h-.43c-.31,0-.61,0-.92,0l-1.18,0h-.44l-.9,0-1.23.06-1,.06-1.25.08-.72,0-.84.07-.78.06-.7.06-.66.06-.74.08-.78.09-.79.1-.81.12c-.53.1-1.06.18-1.59.29s-.83.22-1.25.33l-.08,0,0,.06a.17.17,0,0,1,0,.25,1.3,1.3,0,0,1-.15.18l-.18.19a.16.16,0,0,0,0,.25,1.14,1.14,0,0,0,.47.16,3.58,3.58,0,0,1,.35.09.5.5,0,0,1,.38.66,1.39,1.39,0,0,1-.66.89,5.79,5.79,0,0,1-1.32.59,13.21,13.21,0,0,1-2,.48,7.12,7.12,0,0,1-1.22.14c-.31,0-.61,0-.91,0a5.74,5.74,0,0,1-2.09-.43,3.4,3.4,0,0,1-1.92-2.09,32.82,32.82,0,0,1-1-3.51c-.13-.59-.24-1.19-.35-1.78-.05-.26-.08-.52-.12-.78S2,41.46,2,41.31a2.77,2.77,0,0,1,.19-1.58,1.81,1.81,0,0,1,1.08-.95c.4-.13.81-.23,1.22-.32.79-.17,1.6-.34,2.4-.49l1.86-.33,1.77-.29,1.73-.25,1.5-.21L15,36.71l1.08-.13h.05a.37.37,0,0,1,.23,0,5.25,5.25,0,0,0,1.54.55l.38.09Z" transform="translate(-0.09)"/><path class="cls-1" d="M22.13,37l.48-.31a1.21,1.21,0,0,1,.31-.09,18.49,18.49,0,0,1,2-.43L26.06,36l.89-.09a14.13,14.13,0,0,1,1.72-.06c.34,0,.68,0,1,.07s.81.09,1.21.15c.56.1,1.13.21,1.68.33s1.14.26,1.71.4a1.2,1.2,0,0,1,.23.11l.18.11-.4,0-.56,0-.89,0-.59,0-1-.06-.67,0-1.41-.05H27.81l-1,0-1.33.06-.83,0-1.29.07-.9.06Z" transform="translate(-0.09)"/><path class="cls-2" d="M54.23,31c0,.07,0,.13-.07.19A12.4,12.4,0,0,1,53.49,33,6.58,6.58,0,0,1,52,35a5.49,5.49,0,0,1-2.5,1.31c-.09,0-.18.07-.26.05s-.13-.11-.19-.18a5.53,5.53,0,0,1-1.52-2.74,6.61,6.61,0,0,1-.14-1.53,10.53,10.53,0,0,1,.39-2.43,2.68,2.68,0,0,1,.07-.27l.46.08a5.33,5.33,0,0,0,1.38.07A3.17,3.17,0,0,0,51.05,29c.14-.08.27-.17.4-.26l0,.08a2.6,2.6,0,0,0,.67,1,5,5,0,0,0,1.59,1l.43.16.06,0Zm-5.91-1.17c-.06.23-.12.46-.17.69a8.6,8.6,0,0,0-.2,1.32,5.88,5.88,0,0,0,0,1,4.41,4.41,0,0,0,1.44,2.8.13.13,0,0,0,.08,0A4.79,4.79,0,0,0,51.24,35a4.7,4.7,0,0,0,1-1,6.19,6.19,0,0,0,1-1.79c.1-.28.18-.56.28-.84,0-.07,0-.09,0-.11A5.31,5.31,0,0,1,52.9,31a4.11,4.11,0,0,1-.95-.6,2.5,2.5,0,0,1-.63-.82l-.08-.18-.05,0a2,2,0,0,1-.65.35,3.74,3.74,0,0,1-1.63.11Z" transform="translate(-0.09)"/><path class="cls-2" d="M48.74,30.49a4,4,0,0,0,.46.07,2.65,2.65,0,0,0,1.42-.13,2.77,2.77,0,0,0,.37-.22l0,0s0,0,0,0a2,2,0,0,0,.69.86,3.9,3.9,0,0,0,1,.53l.07,0c-.06.17-.11.35-.17.52A5.25,5.25,0,0,1,52,33.54a3.55,3.55,0,0,1-2.28,1.53.13.13,0,0,1-.1,0,3.84,3.84,0,0,1-.76-1,3.44,3.44,0,0,1-.35-1.17,3.33,3.33,0,0,1,0-.63,6.08,6.08,0,0,1,.21-1.41C48.69,30.73,48.71,30.61,48.74,30.49ZM48.88,33c0,.06,0,.13,0,.2a.92.92,0,0,0,.43.68,2.53,2.53,0,0,0,.83.31,1.35,1.35,0,0,0,.53,0,1,1,0,0,0,.76-.63.9.9,0,0,0-.2-1.05,4.1,4.1,0,0,0-.47-.35c-.16-.11-.33-.19-.49-.29a.22.22,0,0,1-.1-.22.27.27,0,0,1,.2-.21.45.45,0,0,1,.53.37c0,.18.09.2.22.22l.53.12c.06,0,.09,0,.09-.07v-.25a.75.75,0,0,0-.34-.63,2,2,0,0,0-1.22-.35.82.82,0,0,0-.69.35.87.87,0,0,0,0,1,2,2,0,0,0,.58.47,2.31,2.31,0,0,1,.45.32.31.31,0,0,1,0,.49.47.47,0,0,1-.53,0,.52.52,0,0,1-.22-.53s0-.08-.05-.09L49,32.74s-.07,0-.07,0A1.79,1.79,0,0,1,48.88,33Z" transform="translate(-0.09)"/><path class="cls-1" d="M9.14,32.06a1.11,1.11,0,0,0,0,.19,6.09,6.09,0,0,1-.36,1.89,5.67,5.67,0,0,1-1.6,2.26.11.11,0,0,1-.11,0,5.58,5.58,0,0,1-3.47-2.57,8.91,8.91,0,0,1-.92-2.21L2.48,31s0,0,0,0l.39-.13a5,5,0,0,0,1.65-.91A2.77,2.77,0,0,0,5.23,29a1.34,1.34,0,0,1,.07-.18l.1.09a2.57,2.57,0,0,0,1,.51A4.47,4.47,0,0,0,8,29.53c.23,0,.46-.06.68-.09h.07c0,.17.08.34.1.52.07.4.14.8.2,1.21,0,.2,0,.4,0,.6,0,0,0,.07,0,.1ZM5.47,29.53l0,.08,0,.06a2.5,2.5,0,0,1-1,1,4.66,4.66,0,0,1-1.24.57c-.07,0-.07.05-.05.1s.07.26.1.39a8.54,8.54,0,0,0,.54,1.46,4.87,4.87,0,0,0,.59.95,4.35,4.35,0,0,0,1.7,1.34c.27.11.55.19.82.28l.08,0c.19-.19.38-.37.56-.57A4.45,4.45,0,0,0,8.28,34a5.45,5.45,0,0,0,.31-2.43,14,14,0,0,0-.24-1.44c0-.05,0-.07-.09-.06a4.43,4.43,0,0,1-1.54,0,2.34,2.34,0,0,1-1.14-.46A.44.44,0,0,1,5.47,29.53Z" transform="translate(-0.09)"/><path class="cls-1" d="M5.64,30.3c.13.08.25.16.37.22a2.22,2.22,0,0,0,.91.22,3.89,3.89,0,0,0,.9,0s.07,0,.08,0a8.5,8.5,0,0,1,.21,1.43,3.93,3.93,0,0,1-.4,1.88,3.68,3.68,0,0,1-.82,1.06.17.17,0,0,1-.17,0,3.71,3.71,0,0,1-1.22-.58,3.82,3.82,0,0,1-1-1.1A5.88,5.88,0,0,1,3.93,32c0-.11-.06-.23-.1-.35l.38-.14a2.91,2.91,0,0,0,1.1-.7A1.4,1.4,0,0,0,5.64,30.3Zm.63,2.52h0l0-.06L5.53,31.4c0-.07-.06-.08-.13-.06-.25.06-.51.13-.77.18-.06,0-.07,0-.06.1L5,33.34c0,.23.1.45.16.68,0,0,0,.06.06,0L5.73,34l-.49-2s0,0,0,.06c.3.59.6,1.18.89,1.78a.09.09,0,0,0,.12.05l.36-.08a.09.09,0,0,0,.08-.11c0-.64,0-1.27,0-1.91v-.18a.09.09,0,0,1,0,.06l.45,1.91c0,.09,0,.09.11.07l.41-.1c.06,0,.07,0,0-.09-.17-.74-.35-1.48-.52-2.21a1.82,1.82,0,0,0-.07-.25H7.13l-.8.19s-.07,0-.07.08c0,.26,0,.51,0,.76Z" transform="translate(-0.09)"/><path class="cls-2" d="M56.5,15.14s0,0,0,.08a3.71,3.71,0,0,1-.44,1.3,11.62,11.62,0,0,1-1.15,1.71c-.1.14-.21.27-.32.4a.32.32,0,0,0-.08.24,2.64,2.64,0,0,1-.12,1,1,1,0,0,1-.07.18,7.7,7.7,0,0,1-2.18,2.47l-.41.26-.12.06.05.17a2.28,2.28,0,0,1,.13.86.74.74,0,0,1-.23.52,7.49,7.49,0,0,1-2.34,1.5,11.78,11.78,0,0,1-1.71.56l-.23.06a1,1,0,0,1,0,.17,2,2,0,0,1-.06.42.6.6,0,0,1-.21.32c-.36.3-.74.59-1.13.86a4.08,4.08,0,0,1-1.42.61,7.85,7.85,0,0,1-2.27.14,6.15,6.15,0,0,1-2.41-.7,5.45,5.45,0,0,1-1.29-1,.24.24,0,0,1-.05-.29,4,4,0,0,0,.3-1,.3.3,0,0,1,0-.11l.11.14a5,5,0,0,0,2,1.47,5.14,5.14,0,0,0,2.36.33,6.9,6.9,0,0,0,2.44-.65,2,2,0,0,0,.29-.15.37.37,0,0,0,.1-.07l-.38,0A5.62,5.62,0,0,1,42,25.09a4.4,4.4,0,0,1-.57-.8l.11.06a9,9,0,0,0,3,1.31,6.54,6.54,0,0,0,1.39.18,5,5,0,0,0,3.3-1.05c.38-.29.74-.61,1.11-.92,0,0,0,0,.06-.08l-.41.08a7.74,7.74,0,0,1-1.73.1,13.72,13.72,0,0,1-1.8-.18,10.86,10.86,0,0,1-2.37-.67.33.33,0,0,1-.13-.07l.39,0a11.93,11.93,0,0,0,1.89,0q.6,0,1.2-.09a8.79,8.79,0,0,0,2.31-.52A6.62,6.62,0,0,0,52,20.83a12.57,12.57,0,0,0,1.21-1.59.09.09,0,0,0,0-.09l-.14.06a18.4,18.4,0,0,1-2.67,1,14,14,0,0,1-2.4.49,11.34,11.34,0,0,1-2.1,0,15.6,15.6,0,0,1-1.82-.23,0,0,0,0,1,0,0h.13a17.16,17.16,0,0,0,1.9,0c.57-.05,1.13-.09,1.69-.16s1.29-.16,1.92-.28a6.49,6.49,0,0,0,1.13-.37,7.69,7.69,0,0,0,4.37-4.43c0-.06,0-.12.07-.19a.23.23,0,0,0-.15,0,17.76,17.76,0,0,1-1.71,1,19.33,19.33,0,0,1-5,1.65c-.45.09-.91.14-1.36.2H46.9a.18.18,0,0,1,.11-.1c.18-.09.35-.18.53-.25l2-.76c.5-.2,1-.43,1.48-.65l.15-.08a9.38,9.38,0,0,0,2.18-2.13,6.34,6.34,0,0,0,1.09-2.56,6,6,0,0,0,.07-1.52c0-.23,0-.46-.07-.69a1,1,0,0,0,0-.15l-.07.06A13.94,13.94,0,0,1,49.91,13a24.14,24.14,0,0,1-4.74,2.09c-.87.29-1.75.53-2.64.74l-.14,0c0-.1,0-.18,0-.26a3.86,3.86,0,0,1,.17-.82.23.23,0,0,1,.21-.18A15.27,15.27,0,0,0,49.24,12a17.75,17.75,0,0,0,3.81-3.37,3.22,3.22,0,0,1,.7-.63,1.57,1.57,0,0,1,.58-.25.89.89,0,0,1,.81.22,1.85,1.85,0,0,1,.57,1.07,6.11,6.11,0,0,1,.08,1.21,7.91,7.91,0,0,1-.66,3.07l-.07.16.14.05.62.26a1.25,1.25,0,0,1,.49.45.91.91,0,0,1,.16.38.15.15,0,0,0,0,.07Z" transform="translate(-0.09)"/><path class="cls-2" d="M12.67,23.07l-.63.24a11.63,11.63,0,0,1-2.26.54,13.17,13.17,0,0,1-2,.13,6.37,6.37,0,0,1-1.51-.18s0,0,0,0,0,0,0,.05A9.79,9.79,0,0,0,8,25.16a4.89,4.89,0,0,0,2.07.66A7,7,0,0,0,13,25.41a8.54,8.54,0,0,0,2.14-1.06l.1,0-.08.14a4.89,4.89,0,0,1-1.63,1.6,5.7,5.7,0,0,1-2.15.79c-.23,0-.46.05-.69.08l-.1,0,.15.1a6.42,6.42,0,0,0,1.7.62,6.17,6.17,0,0,0,1.48.17,4.84,4.84,0,0,0,3.8-1.75l.16-.18h0a.25.25,0,0,1,0,.07A4.59,4.59,0,0,0,18.19,27a.18.18,0,0,1,0,.23,5,5,0,0,1-1.49,1.12,5.91,5.91,0,0,1-2,.58,7.59,7.59,0,0,1-1.26.05,6.1,6.1,0,0,1-2-.38,3.33,3.33,0,0,1-.78-.44l-1-.77a.85.85,0,0,1-.32-.67,2.61,2.61,0,0,1,0-.28l-.22-.06a10.61,10.61,0,0,1-2.38-.87,7.14,7.14,0,0,1-1.68-1.2.71.71,0,0,1-.23-.5A2.33,2.33,0,0,1,5,23c0-.05,0-.1,0-.16l0,0a6.23,6.23,0,0,1-1.88-1.62c-.24-.31-.45-.63-.67-.95a1.9,1.9,0,0,1-.29-1c0-.12,0-.24,0-.36A.3.3,0,0,0,2,18.64,15.8,15.8,0,0,1,.85,17,4.9,4.9,0,0,1,.17,15.5a2.25,2.25,0,0,1-.08-.58,1.18,1.18,0,0,1,.5-1,2.67,2.67,0,0,1,.74-.36l.2-.06a1,1,0,0,0-.06-.14,8.4,8.4,0,0,1-.62-2.31,8,8,0,0,1,0-1.62,2.17,2.17,0,0,1,.31-1,2.13,2.13,0,0,1,.25-.34.89.89,0,0,1,1-.25A1.83,1.83,0,0,1,2.85,8a2.44,2.44,0,0,1,.66.58A17.35,17.35,0,0,0,5.7,10.8a17.64,17.64,0,0,0,4.37,2.71,14.58,14.58,0,0,0,3.36,1c.13,0,.25.05.38.06a.15.15,0,0,1,.16.13c.06.22.12.44.17.66s0,.29.06.45h-.09a27.43,27.43,0,0,1-6.86-2.52,16.42,16.42,0,0,1-3.54-2.53A12,12,0,0,1,2.3,9.14.94.94,0,0,0,2.21,9h0a2.89,2.89,0,0,1,0,.29,6.29,6.29,0,0,0,.29,3A6.92,6.92,0,0,0,4.06,14.9,10.93,10.93,0,0,0,5.38,16a1.13,1.13,0,0,0,.21.12,24.24,24.24,0,0,0,2.42,1l1.24.48a1.31,1.31,0,0,1,.44.26.86.86,0,0,1-.16,0,19.15,19.15,0,0,1-8-2.77l-.14-.08h0c0,.05,0,.1,0,.14A8.17,8.17,0,0,0,2.7,17.51a7.91,7.91,0,0,0,3.66,2.4,8.12,8.12,0,0,0,1.19.25c.47.07,1,.14,1.43.19l1.46.13c.59,0,1.19.05,1.79,0a1.14,1.14,0,0,1,.26,0l-.67.11a13,13,0,0,1-2.34.14,12.87,12.87,0,0,1-2.82-.4,17.47,17.47,0,0,1-3.19-1.18l-.18-.08a.64.64,0,0,0,0,.1,12.28,12.28,0,0,0,1.53,1.92,6,6,0,0,0,2.78,1.6c.42.1.85.17,1.28.23a14.22,14.22,0,0,0,2.44.15c.43,0,.87-.05,1.3-.07Z" transform="translate(-0.09)"/><path class="cls-1" d="M25,0h.42l.42.06a5.1,5.1,0,0,1,2.32.85,1,1,0,0,1,.13.09l.17-.12A5.14,5.14,0,0,1,30.7.06L31.12,0h.42l.19,0a5.85,5.85,0,0,1,1.56.32,1.56,1.56,0,0,1,.15.06L33.1.64c-.18.12-.22.18-.25.27h0A3.19,3.19,0,0,1,34.48.72a8.33,8.33,0,0,1,1.85.38l.67.23a9.17,9.17,0,0,1-.9.24.91.91,0,0,1,.16.1,8.83,8.83,0,0,1,1.16.75,1.11,1.11,0,0,0,.3.17,5.82,5.82,0,0,1,1,.42,4.13,4.13,0,0,1,1.38,1.25,3.75,3.75,0,0,1,.6,1.92,4.89,4.89,0,0,1,0,1.08.29.29,0,0,0,.08.26c.1.12.18.25.27.38a8.47,8.47,0,0,1,1,2.2,14.86,14.86,0,0,1,.51,2.29,15,15,0,0,1,.16,2.13,1,1,0,0,1,0,.17c-.07.54-.13,1.09-.21,1.63a11,11,0,0,1-.83,2.82A11.23,11.23,0,0,1,39,22.76l-.3.29a.16.16,0,0,0-.06.16l0,.36c.06.5.11,1,.12,1.49a5.77,5.77,0,0,1-.2,1.66,2.76,2.76,0,0,1-1.07,1.59h0l-.06.06.13,0a6.44,6.44,0,0,1,.72-.2,2.34,2.34,0,0,1,1.23.06,4.9,4.9,0,0,1,1,.5,3.6,3.6,0,0,1,1.74,2.88,5,5,0,0,1-.11,1.49,4.07,4.07,0,0,1-1.74,2.59,5.71,5.71,0,0,1-2.72.9c-.46,0-.93,0-1.4,0a2.61,2.61,0,0,1-.48,0,3.7,3.7,0,0,1-1.12-.42.77.77,0,0,0-.19-.08c-1.19-.29-2.37-.58-3.57-.78a18.12,18.12,0,0,0-2.08-.23,14.88,14.88,0,0,0-2.31.09q-1,.11-1.95.27a21.17,21.17,0,0,0-2.23.51.58.58,0,0,0-.18.08,3.18,3.18,0,0,1-1.8.6,11.37,11.37,0,0,1-1.65,0,5.84,5.84,0,0,1-2.08-.63,4,4,0,0,1-2.07-2.47,4.81,4.81,0,0,1-.19-2,3.59,3.59,0,0,1,1-2.16,4.3,4.3,0,0,1,1.84-1.08,2.17,2.17,0,0,1,.51-.08A3.12,3.12,0,0,1,19,28.3l.15,0,0,0-.13-.1a2.68,2.68,0,0,1-.72-.88A5.3,5.3,0,0,1,17.87,25c0-.57.08-1.14.15-1.71a.24.24,0,0,0-.08-.25c-.21-.19-.4-.38-.59-.58a11,11,0,0,1-2.91-5.36c-.08-.35-.13-.7-.18-1a6.77,6.77,0,0,0-.19-.87,2.91,2.91,0,0,1-.12-1c0-.19,0-.39.05-.58.05-.46.1-.92.16-1.38a14,14,0,0,1,.62-2.45A7.89,7.89,0,0,1,16,7.48a.27.27,0,0,0,0-.21,5.58,5.58,0,0,1,0-1.58A3.53,3.53,0,0,1,17.3,3.5a4.78,4.78,0,0,1,1.52-.86,2.29,2.29,0,0,0,.53-.29c.34-.24.71-.46,1.07-.69l.15-.09a7.12,7.12,0,0,1-1-.27l.14-.06c.23-.07.45-.15.68-.21A7,7,0,0,1,22.62.7a2.65,2.65,0,0,1,1,.19l.11,0a2.11,2.11,0,0,0-.63-.49l.1,0A5.51,5.51,0,0,1,24.48.06ZM20.48,11a2.69,2.69,0,0,0-1.16.17,2.94,2.94,0,0,1,.6-.39c.16-.09.33-.17.5-.25s.08,0,.08-.1V10h-.09l-.6.06a3.67,3.67,0,0,1-1.32-.13A2.26,2.26,0,0,1,17,8.72l-.06-.07-.15.14a5.18,5.18,0,0,0-1.3,1.77,6.63,6.63,0,0,0-.49,1.7,8.27,8.27,0,0,0-.12,1.22.25.25,0,0,0,0,.18,4.67,4.67,0,0,1,1-1.58,3.84,3.84,0,0,1,1.6-.95l0,0A4,4,0,0,0,16,12.57,5.37,5.37,0,0,0,15.3,15a8.42,8.42,0,0,0,.09,1.81l0,.18,0,.16h0A3.34,3.34,0,0,1,16,15.66a5.43,5.43,0,0,1,1-1.23,4.77,4.77,0,0,0-.65,4.43c.12-.37.23-.75.37-1.12a2.41,2.41,0,0,1,.67-.95c0,.08-.07.16-.1.23l-.09.24A5.24,5.24,0,0,0,17,20a3.81,3.81,0,0,0,.84,1.78.36.36,0,0,0,.09.08v-.08a7,7,0,0,1,0-1.52,3.07,3.07,0,0,1,.23-.95l.06-.13a1.21,1.21,0,0,1,.06.31,5.28,5.28,0,0,0,.27,1.3,4.92,4.92,0,0,0,1.4,2,9.25,9.25,0,0,0,2.5,1.55l.09,0c-.2-.24-.4-.46-.57-.7a7.66,7.66,0,0,1-.5-.76,8.43,8.43,0,0,1-.39-.8,4.23,4.23,0,0,1-.28-.85,5.84,5.84,0,0,0,1.53,2.17,5.37,5.37,0,0,0,2.36,1.15A8.78,8.78,0,0,1,23,21.55a.08.08,0,0,1,0,.05,14.49,14.49,0,0,0,2.53,3.09,6.07,6.07,0,0,0,.95.74l.16.08a3,3,0,0,0,0-1.07,4.5,4.5,0,0,0-.48-1.23l-.08-.15a4.64,4.64,0,0,1,.38.39,8,8,0,0,1,1.81,3.09l.06.12a7.72,7.72,0,0,1,.88-2,9.22,9.22,0,0,1,1.34-1.65A3.74,3.74,0,0,0,30,25.52l.15-.09c.22-.16.45-.31.66-.49a13.77,13.77,0,0,0,2.81-3.32.35.35,0,0,1,0-.08A5.54,5.54,0,0,1,33,23.16a11.58,11.58,0,0,1-1,1.47,4.25,4.25,0,0,0,1-.32,4.71,4.71,0,0,0,.93-.52,5.15,5.15,0,0,0,.79-.68,4.39,4.39,0,0,0,.65-.84c.18-.3.33-.61.52-.94a7.45,7.45,0,0,1-1.74,3.07.16.16,0,0,0,.1,0A9.43,9.43,0,0,0,36.61,23a4.79,4.79,0,0,0,1.83-3.33c0-.15,0-.3.05-.45a.44.44,0,0,1,.1.15,3.61,3.61,0,0,1,.23,1,7.58,7.58,0,0,1,0,1.43.41.41,0,0,0,0,.11l.05,0,.08-.1a3.93,3.93,0,0,0,.86-2.59,5.87,5.87,0,0,0-.51-2.26l-.05-.12s0,0,0,0a.23.23,0,0,1,.07.07,2.71,2.71,0,0,1,.61,1c.11.3.18.61.28.91l0,.13h0a4.89,4.89,0,0,0,.21-2.31,5,5,0,0,0-.89-2.16,5.66,5.66,0,0,1,1.26,1.65,2.85,2.85,0,0,1,.31,1,.44.44,0,0,0,0,.1l0,0a8,8,0,0,0,.13-2.28,5.4,5.4,0,0,0-.56-2.05,4,4,0,0,0-1.53-1.65l-.09,0a3.82,3.82,0,0,1,2.34,1.93c.09.16.16.33.24.49l.07.1v-.12a8.74,8.74,0,0,0-.23-1.84,5.38,5.38,0,0,0-1.68-2.91l-.15-.15a.35.35,0,0,0-.06.09,2.25,2.25,0,0,1-1.36,1.11,4.37,4.37,0,0,1-2,.14l-.18,0c0,.16,0,.3,0,.43a.16.16,0,0,0,0,.09c.05,0,.1,0,.14.07.29.16.58.32.86.49l.06,0,0,.06A2.48,2.48,0,0,0,36.2,11v1.46A3.87,3.87,0,0,1,38,13.49a2.46,2.46,0,0,0-1-.37,4.46,4.46,0,0,1,1.14,1.55,2.5,2.5,0,0,1-.24-.22l-.24-.19a.75.75,0,0,0-.27-.18l.38.51a4.33,4.33,0,0,1,.31.51L38,15a2.66,2.66,0,0,0-.83-.62L37,14.34,37.25,18a2.64,2.64,0,0,0-.69-1.55l0,0a2.33,2.33,0,0,1-.5.91,6.2,6.2,0,0,1-.8.82.14.14,0,0,0-.06.19,3.22,3.22,0,0,1,.09.76,6.56,6.56,0,0,1-.32,2.15.61.61,0,0,1,0,.12.48.48,0,0,1,0-.17,8.66,8.66,0,0,0,0-1.61,2.14,2.14,0,0,0-.17-.66.45.45,0,0,0-.16-.22.71.71,0,0,0-.09.07c-.2.14-.4.3-.6.43a4.27,4.27,0,0,1-1,.47.37.37,0,0,0-.28.35A3.69,3.69,0,0,1,32,21.68l-.09.1a3.74,3.74,0,0,0,.17-1.48l-.09.07a3.48,3.48,0,0,1-.87.7,5.39,5.39,0,0,1-2,.67.19.19,0,0,0-.18.14c-.12.29-.25.58-.38.87a2,2,0,0,0-.23.62c0-.14-.07-.26-.11-.37-.18-.38-.35-.77-.53-1.16a.14.14,0,0,0-.13-.1,6.17,6.17,0,0,1-.62-.11,4.63,4.63,0,0,1-2.31-1.29s0,0-.07-.05a4.3,4.3,0,0,0,.18,1.48,2.39,2.39,0,0,1-.31-.47A4.44,4.44,0,0,1,24,19.93a.17.17,0,0,0-.13-.18,2.18,2.18,0,0,1-.23-.09,5.16,5.16,0,0,1-1.49-.9l-.05,0a.48.48,0,0,0-.18.26,4.34,4.34,0,0,0-.14.6,8.14,8.14,0,0,0,0,1.56,1.94,1.94,0,0,1,0,.24l0-.08a6.67,6.67,0,0,1-.31-1.46,4.26,4.26,0,0,1,.06-1.47.19.19,0,0,0-.07-.23,5.51,5.51,0,0,1-.91-1,2.13,2.13,0,0,1-.38-.73s0,0,0-.07a.75.75,0,0,0-.12.14,3.78,3.78,0,0,0-.26.43,4.35,4.35,0,0,0-.3,1l.24-3.61-.15.05a2.6,2.6,0,0,0-.82.6.6.6,0,0,0-.08.08,5.73,5.73,0,0,1,.65-1,4.7,4.7,0,0,0-.75.6,4.53,4.53,0,0,1,.23-.44l.26-.4a3.79,3.79,0,0,1,.31-.37c.11-.12.23-.22.34-.33a2.24,2.24,0,0,0-1,.36,3.9,3.9,0,0,1,1.83-1.06ZM28.35,7.8c-.13-.14-.25-.29-.38-.41a3.14,3.14,0,0,0-1.61-.79,6.47,6.47,0,0,0-2.06,0,2.74,2.74,0,0,0-1,.3,3,3,0,0,0-1.42,1.68L21.79,9a15.36,15.36,0,0,0-.35,2.34A3.57,3.57,0,0,1,21,12.77a4,4,0,0,0-.54,1.5,2.16,2.16,0,0,0,.15,1.28,5.34,5.34,0,0,0,2.46,2.59c.58.29,1.17.56,1.75.84a.45.45,0,0,1,.13.1,3.5,3.5,0,0,0,1.45,1.22,4.4,4.4,0,0,0,1.67.4A4.73,4.73,0,0,0,30,20.44a3.57,3.57,0,0,0,1.79-1.36.38.38,0,0,1,.14-.11c.58-.28,1.17-.54,1.74-.83a5.28,5.28,0,0,0,2.44-2.58,1.83,1.83,0,0,0,.15-.45,2.56,2.56,0,0,0-.07-1.23,4.78,4.78,0,0,0-.51-1.21,2.91,2.91,0,0,1-.37-1.12c-.07-.58-.14-1.16-.22-1.74a6.41,6.41,0,0,0-.31-1.31A2.89,2.89,0,0,0,32.5,6.6a6.19,6.19,0,0,0-2.06,0,3.26,3.26,0,0,0-1.34.5A2.45,2.45,0,0,0,28.35,7.8Zm7.55,0-.19.3a.3.3,0,0,0,0,.3,1.76,1.76,0,0,0,.65.89,1.32,1.32,0,0,0,.77.23,1.62,1.62,0,0,0,.54-.1,3.61,3.61,0,0,0,1.12-.69,2.1,2.1,0,0,0,.4-.44,3.57,3.57,0,0,0,.52-1.16,2.49,2.49,0,0,0-.45-2.19,4,4,0,0,0-1.58-1.26,3,3,0,0,0-1.85-.25,4.14,4.14,0,0,0-1.08.35l-.2.09a.46.46,0,0,1,.07-.14c.13-.12.26-.25.4-.36a4.4,4.4,0,0,1,1.16-.6l.12,0a3.64,3.64,0,0,0-2.91-.06,3.83,3.83,0,0,1,1.45-.76s.1,0,.13-.08l-.15-.07a4.7,4.7,0,0,0-2.43-.27,6.23,6.23,0,0,0-2.17.75l-.09,0A4.17,4.17,0,0,1,31,1.4,6.3,6.3,0,0,1,32,.77a4.24,4.24,0,0,0-3.7,1.06l0,0A3.43,3.43,0,0,0,27.09,1,4.83,4.83,0,0,0,24.8.74l-.15,0v0a5.12,5.12,0,0,1,1.95,1.46l-.08,0a6,6,0,0,0-2.76-.82,4.61,4.61,0,0,0-1.94.35l-.09.05c.29.12.57.22.84.34a3,3,0,0,1,.75.49,3.64,3.64,0,0,0-2.91.06l.13.06c.26.11.52.22.78.35a2.54,2.54,0,0,1,.68.5l.17.21a.21.21,0,0,1-.14,0l-.38-.17a3.18,3.18,0,0,0-2.6,0A4.37,4.37,0,0,0,17.53,4.8a2.51,2.51,0,0,0-.49.87A2.41,2.41,0,0,0,17,7.05a3.1,3.1,0,0,0,.84,1.57,3.38,3.38,0,0,0,1.2.77,1.65,1.65,0,0,0,.76.1A1.62,1.62,0,0,0,21,8.29a.17.17,0,0,0,0-.1,1.44,1.44,0,0,0-.25-.39c-.14.1-.26.2-.39.28a1.48,1.48,0,0,1-.78.28,1.5,1.5,0,0,1-1-.3,1.19,1.19,0,0,1-.46-.68,1.43,1.43,0,0,1,0-.65,1.34,1.34,0,0,1,.2-.58,1.31,1.31,0,0,1,1.3-.5.79.79,0,0,1,.3.08,1.83,1.83,0,0,1,.58.49,1.07,1.07,0,0,1,.28.63.64.64,0,0,0,.3.49.19.19,0,0,0,.3,0,.89.89,0,0,0,.27-.87A1.87,1.87,0,0,0,20.48,5a2.55,2.55,0,0,0-1.06-.14,2.23,2.23,0,0,0-1.18.35h0a.35.35,0,0,1,.07-.12,1.6,1.6,0,0,1,.66-.55,2.34,2.34,0,0,1,1.51-.26,2.2,2.2,0,0,1,.84.38,4,4,0,0,1,.89.86,1.62,1.62,0,0,1,.36.8l0,.14a5.52,5.52,0,0,1,2.34-.82,9.88,9.88,0,0,1-1.05-.34,9.89,9.89,0,0,0,1.33.08h.14a4.61,4.61,0,0,1,1.2.36l.11,0a4.49,4.49,0,0,0-.6-1,9.22,9.22,0,0,1,1.79,1.31,2.46,2.46,0,0,1,.46.6l0,0A2.67,2.67,0,0,1,29,5.91a10.31,10.31,0,0,1,1.62-1.15l.08,0a3.62,3.62,0,0,0-.64,1l.07,0c.28-.1.56-.21.84-.29a1.84,1.84,0,0,1,.51-.1,12.59,12.59,0,0,0,1.37-.08c-.34.15-.7.22-1.05.34l.08,0A3.88,3.88,0,0,1,33.11,6l.86.41a1.07,1.07,0,0,0,.15.07,1.87,1.87,0,0,1,.5-1.09,4,4,0,0,1,.94-.81,1.93,1.93,0,0,1,1.06-.31,2.6,2.6,0,0,1,1.25.37,1.58,1.58,0,0,1,.55.51s0,.06,0,.08A4,4,0,0,0,37.94,5a2.94,2.94,0,0,0-1.5-.06A1.91,1.91,0,0,0,35,6.39a.91.91,0,0,0,.29,1,.16.16,0,0,0,.21,0,.62.62,0,0,0,.36-.49A1.08,1.08,0,0,1,36,6.41a1.93,1.93,0,0,1,.73-.69.34.34,0,0,1,.14,0,1.61,1.61,0,0,1,.69,0,1.14,1.14,0,0,1,.91.85,3,3,0,0,1,.07.43A1.18,1.18,0,0,1,38,8.06a1.6,1.6,0,0,1-.67.28,1.34,1.34,0,0,1-.4,0A1.9,1.9,0,0,1,36,7.88Zm-13,27.13H23l.88-.2a11.94,11.94,0,0,1,1.89-.26,9,9,0,0,1,2.42.24.53.53,0,0,0,.25,0,9,9,0,0,1,2.82-.3,8,8,0,0,1,2.38.47l.13,0a.41.41,0,0,1,0-.11,3.94,3.94,0,0,1-.1-.84,4.48,4.48,0,0,1,.26-1.58,7.18,7.18,0,0,1,2.3-3.21l.14-.11a.19.19,0,0,0-.11,0l-1.1.42a.28.28,0,0,0-.16.12l-.48.81a1.67,1.67,0,0,1-1.7.83l-.21,0a3.46,3.46,0,0,1-.52,1,2.5,2.5,0,0,1-.85.77l.27-.37L32,32a1.55,1.55,0,0,0,.25-.59.86.86,0,0,0,0-.23c0-.07,0-.09-.1-.07l-.06,0a1.57,1.57,0,0,1-1.41.13c-.35-.13-.7-.27-1-.42a1.45,1.45,0,0,1-.93-1.21.25.25,0,0,0-.06-.14.9.9,0,0,1-.27-.46l0-.14a.33.33,0,0,0-.06.14.83.83,0,0,1-.24.44.27.27,0,0,0-.1.19,1.39,1.39,0,0,1-.57,1,2,2,0,0,1-.45.25l-.85.34a1.62,1.62,0,0,1-1.44-.06l-.11-.05c0,.1,0,.18,0,.25a1.63,1.63,0,0,0,.21.53c.11.17.22.33.34.49l.35.47a.47.47,0,0,1,.07.12h0a3.57,3.57,0,0,1-1.33-1.79l-.32,0a1.65,1.65,0,0,1-1.69-.83c-.16-.26-.32-.52-.47-.79a.35.35,0,0,0-.19-.15l-.93-.34-.12,0a.55.55,0,0,0,.1.11,7.09,7.09,0,0,1,2.25,3.17A4.43,4.43,0,0,1,23,34.46C23,34.6,23,34.75,22.93,34.91Zm-3.7-11.85s0,0,0,0,0,0,0,0a5.1,5.1,0,0,0-.53,2.48A3.55,3.55,0,0,0,19,27a2.14,2.14,0,0,0,.5.7,5.39,5.39,0,0,0,2.33,1.16.16.16,0,0,1,.14.11,3.21,3.21,0,0,0,.56.85,2.59,2.59,0,0,0,1.08.73.17.17,0,0,0,.17,0,3.7,3.7,0,0,0,.33-.21,1.09,1.09,0,0,0,.3-.75,3,3,0,0,0-.1-.95l0-.14h0c.1.14.21.28.3.42a1.44,1.44,0,0,1,.24.83,3,3,0,0,1-.09.67l0,.12a1.63,1.63,0,0,0,.86.18.55.55,0,0,0,.46-.31,1.12,1.12,0,0,0,.12-.35,3.17,3.17,0,0,0,0-1c0-.19-.07-.38-.11-.59a1.35,1.35,0,0,1,.12.12,2.3,2.3,0,0,1,.35.61,2.89,2.89,0,0,1,.19,1.13.65.65,0,0,0,0,.11l.34-.12a.86.86,0,0,0,.48-.67,2,2,0,0,0,0-.54,4.27,4.27,0,0,0-.29-.94,1.17,1.17,0,0,0,0-.11,2.74,2.74,0,0,1,.76.92,1.14,1.14,0,0,0,.07-.19,1.94,1.94,0,0,0-.55-1.91,5.42,5.42,0,0,0-1.37-.95,4.61,4.61,0,0,0-1.93-.43,9.49,9.49,0,0,0-1.51.07.44.44,0,0,1-.16,0A7.37,7.37,0,0,1,21.23,25a4.85,4.85,0,0,1-1.93-1.8ZM30,30.33a3.6,3.6,0,0,1,.14-1,2.31,2.31,0,0,1,.53-.92.21.21,0,0,1,0,.06,3.89,3.89,0,0,0-.15,1.4,1.27,1.27,0,0,0,.09.42.59.59,0,0,0,.58.4,1.64,1.64,0,0,0,.69-.14.31.31,0,0,0,.1-.05,1.77,1.77,0,0,1,.46-2,1,1,0,0,0,0,.14,3.37,3.37,0,0,0-.1,1,1,1,0,0,0,.59.9.24.24,0,0,0,.22,0c.13-.06.28-.11.41-.18a3,3,0,0,0,1.22-1.38.17.17,0,0,1,.15-.12,5.33,5.33,0,0,0,2-.93,2.76,2.76,0,0,0,.47-.43,2.69,2.69,0,0,0,.46-.87A3.75,3.75,0,0,0,38,24.82a5,5,0,0,0-.46-1.62.64.64,0,0,0-.08-.14l0,0-.06.09a4.72,4.72,0,0,1-1.71,1.67,7.36,7.36,0,0,1-1.5.64H34c-.28,0-.56-.06-.84-.07s-.71,0-1.07,0a4.3,4.3,0,0,0-1.41.35,6.17,6.17,0,0,0-1.36.9,1.89,1.89,0,0,0-.53.66,1.92,1.92,0,0,0-.15,1.37.71.71,0,0,0,.07.16c.12-.18.22-.34.33-.49s.32-.36.42-.39a.69.69,0,0,0,0,.1c-.09.26-.18.5-.25.76a1.64,1.64,0,0,0-.05.73A.87.87,0,0,0,30,30.33Zm7.54,5.54a4,4,0,0,0,1.39-.25,3.86,3.86,0,0,0,1.78-1.27A3.65,3.65,0,0,0,41.4,32a2.77,2.77,0,0,0-.34-1.38,3.07,3.07,0,0,0-1.65-1.36,2.09,2.09,0,0,0-1.16-.06,2.85,2.85,0,0,0-1,.4,5.22,5.22,0,0,0-2.13,2.53,3.43,3.43,0,0,0-.22,2,1.91,1.91,0,0,0,1.44,1.64A4,4,0,0,0,37.49,35.87Zm-18.28,0a3.61,3.61,0,0,0,1.26-.2,1.8,1.8,0,0,0,1.2-1.27,3.23,3.23,0,0,0-.05-2A5.26,5.26,0,0,0,20,30a3.77,3.77,0,0,0-1.36-.78,2,2,0,0,0-1.31,0,4.29,4.29,0,0,0-.58.26,2.75,2.75,0,0,0-1.38,1.75,3.79,3.79,0,0,0,0,1.5,3.39,3.39,0,0,0,.88,1.81A4.1,4.1,0,0,0,19.21,35.87ZM36.38,7a.85.85,0,1,0,1.69,0,.85.85,0,0,0-1.69,0ZM18.63,7a.85.85,0,0,0,1.69,0,.85.85,0,0,0-1.69,0Z" transform="translate(-0.09)"/><path class="cls-1" d="M28.33,16l-.11.15a3.12,3.12,0,0,1-2.1,1.25,2.73,2.73,0,0,1-1.52-.16,2.23,2.23,0,0,1-1.12-1,1.56,1.56,0,0,1-.2-.56.65.65,0,0,1,0-.34A.52.52,0,0,1,24,15a.17.17,0,0,1,.13.26.51.51,0,0,1-.13.16.26.26,0,0,0-.09.27.88.88,0,0,0,.24.48,2.18,2.18,0,0,0,1.76.74,2.15,2.15,0,0,0,.93-.25,2.84,2.84,0,0,0,1-.81,1.58,1.58,0,0,0,.33-.76.42.42,0,0,0-.29-.5,5.17,5.17,0,0,1-1.67-1.14,1.12,1.12,0,0,1-.24-.37.41.41,0,0,1,.25-.57,5.69,5.69,0,0,1,.59-.16,9.28,9.28,0,0,1,1.82-.18,4.81,4.81,0,0,1,1.51.18l.3.11a1,1,0,0,1,.17.1.44.44,0,0,1,.12.6,2.13,2.13,0,0,1-.31.43,3.45,3.45,0,0,1-1.46,1l-.24.12a.16.16,0,0,0-.1.19,1.16,1.16,0,0,0,.07.31,3,3,0,0,0,.91,1.25,1.92,1.92,0,0,0,1.5.4,2.86,2.86,0,0,0,.9-.24,1.39,1.39,0,0,0,.73-.66.92.92,0,0,0,.09-.23.36.36,0,0,0-.12-.39c-.12-.1-.14-.22,0-.33a.4.4,0,0,1,.6.13.68.68,0,0,1,.1.48,1.47,1.47,0,0,1-.31.8,2.29,2.29,0,0,1-1.39.9A3.29,3.29,0,0,1,29.33,17a2.23,2.23,0,0,1-.95-1Zm-1.54-3.15c.17.05,3.24.05,3.36,0a.66.66,0,0,0-.15-.07,4.09,4.09,0,0,0-1.86-.35,3.08,3.08,0,0,0-1.23.33Z" transform="translate(-0.09)"/><path class="cls-1" d="M33.5,10.7a1.66,1.66,0,0,1-.86,1.36,1.59,1.59,0,0,1-2-.39,1.8,1.8,0,0,1,.09-2.37,1.59,1.59,0,0,1,2.49.25A1.85,1.85,0,0,1,33.5,10.7Zm-2.36,1,.05.06a1.78,1.78,0,0,0,1,.22.85.85,0,0,0,.63-.37A1.46,1.46,0,0,0,33,10.29a.82.82,0,0,0-.12-.2.16.16,0,0,0-.2-.06v.08a1.94,1.94,0,0,1,0,.76,1,1,0,0,1-.62.68,1.54,1.54,0,0,1-.77.1ZM32,9.81a.53.53,0,0,0-.54-.55.54.54,0,0,0-.56.55.55.55,0,0,0,.55.55A.53.53,0,0,0,32,9.81Z" transform="translate(-0.09)"/><path class="cls-1" d="M24.8,8.82a1.57,1.57,0,0,1,1.3.66,1.76,1.76,0,0,1-.29,2.41,1.58,1.58,0,0,1-2.23-.21,1.77,1.77,0,0,1,.24-2.52A1.52,1.52,0,0,1,24.8,8.82ZM24,10a.15.15,0,0,0-.17.06,1,1,0,0,0-.14.22,1.46,1.46,0,0,0,.13,1.19.87.87,0,0,0,.77.45,1.79,1.79,0,0,0,.91-.24s0,0,0,0h-.06c-.17,0-.33,0-.49,0A1.06,1.06,0,0,1,24.1,11,1.36,1.36,0,0,1,24,10.5Zm1.8-.21a.53.53,0,0,0-.54-.55.52.52,0,0,0-.56.55.55.55,0,1,0,1.1,0Z" transform="translate(-0.09)"/><path class="cls-1" d="M31.77,7.26a1.33,1.33,0,0,1,.81.3,1.18,1.18,0,0,1,.18.21.17.17,0,0,1,0,.12s-.08,0-.12,0h0a1.74,1.74,0,0,0-1.22-.25.29.29,0,0,1-.13,0c-.09,0-.11-.11,0-.17a.7.7,0,0,1,.16-.13A.88.88,0,0,1,31.77,7.26Z" transform="translate(-0.09)"/><path class="cls-1" d="M24.92,7.26a.86.86,0,0,1,.48.13l.09.09a.09.09,0,0,1,0,.15.25.25,0,0,1-.15,0,2.37,2.37,0,0,0-.75,0,1.54,1.54,0,0,0-.44.19.14.14,0,0,1-.17,0s0-.11,0-.18a1,1,0,0,1,.17-.18A1.35,1.35,0,0,1,24.92,7.26Z" transform="translate(-0.09)"/><path class="cls-1" d="M36.16,34.1A1.27,1.27,0,0,1,36.84,33a1.39,1.39,0,0,1,1.73.29,1.28,1.28,0,0,1,0,1.71,1.39,1.39,0,0,1-2.2-.19A1.19,1.19,0,0,1,36.16,34.1Zm1.42,1,.25,0a1,1,0,0,0,.57-1.62,1.08,1.08,0,0,0-1.43-.2,1,1,0,0,0-.45.79A1,1,0,0,0,37.58,35.09Z" transform="translate(-0.09)"/><path class="cls-1" d="M38.51,31.18a1.32,1.32,0,0,1,.47-1,.59.59,0,0,1,.39-.16.49.49,0,0,1,.45.24,1,1,0,0,1,.17.66,1.41,1.41,0,0,1-.3.77,1,1,0,0,1-.32.27.55.55,0,0,1-.73-.23A1.07,1.07,0,0,1,38.51,31.18Z" transform="translate(-0.09)"/><path class="cls-1" d="M41,32.37a1.27,1.27,0,0,1-.44.9.45.45,0,0,1-.76-.18,1.15,1.15,0,0,1-.06-.61,1.37,1.37,0,0,1,.36-.72l.2-.14a.41.41,0,0,1,.57.16A1,1,0,0,1,41,32.37Z" transform="translate(-0.09)"/><path class="cls-1" d="M38.12,30.79a1.21,1.21,0,0,1-.37.86.18.18,0,0,1-.07.05.49.49,0,0,1-.79-.22,1.15,1.15,0,0,1,.37-1.29.49.49,0,0,1,.78.2A1,1,0,0,1,38.12,30.79Z" transform="translate(-0.09)"/><path class="cls-1" d="M20.54,34.1a1.38,1.38,0,0,1-.91,1.24,1.4,1.4,0,0,1-1.62-.5,1.28,1.28,0,0,1,.09-1.58,1.4,1.4,0,0,1,2.34.41C20.49,33.81,20.5,34,20.54,34.1Zm-1.42,1,.22,0a1,1,0,0,0,.8-1.16,1.07,1.07,0,0,0-1.59-.7,1,1,0,0,0-.37,1.38A1,1,0,0,0,19.12,35.08Z" transform="translate(-0.09)"/><path class="cls-1" d="M18.16,31.26a1.08,1.08,0,0,1-.09.38.56.56,0,0,1-.84.26l-.2-.17a1.3,1.3,0,0,1-.27-1.33.58.58,0,0,1,.45-.4.54.54,0,0,1,.31.05.92.92,0,0,1,.39.34A1.42,1.42,0,0,1,18.16,31.26Z" transform="translate(-0.09)"/><path class="cls-1" d="M15.64,32.28a1,1,0,0,1,.09-.42.43.43,0,0,1,.69-.19.87.87,0,0,1,.22.21,1.33,1.33,0,0,1,.26,1,.81.81,0,0,1-.14.33.41.41,0,0,1-.46.14.69.69,0,0,1-.35-.25A1.35,1.35,0,0,1,15.64,32.28Z" transform="translate(-0.09)"/><path class="cls-1" d="M18.55,30.79a.85.85,0,0,1,.14-.49.47.47,0,0,1,.65-.16.88.88,0,0,1,.34.35,1.15,1.15,0,0,1,.13.92.89.89,0,0,1-.08.17.46.46,0,0,1-.67.17,1,1,0,0,1-.47-.67A2.89,2.89,0,0,1,18.55,30.79Z" transform="translate(-0.09)"/><path class="cls-1" d="M18.09,46.81,18,46.75l-.14,0h-.14l-.09,0a.09.09,0,0,0,0,.07s0,0,0,0l.06,0,.09,0,.13,0,.2,0a.53.53,0,0,1,.15.08.38.38,0,0,1,.11.11.48.48,0,0,1,.06.18.47.47,0,0,1,0,.24.48.48,0,0,1-.12.16.42.42,0,0,1-.17.1.54.54,0,0,1-.21,0H17.5l-.18,0-.16-.05c.06-.16.08-.24.14-.39a.85.85,0,0,0,.17.06.62.62,0,0,0,.16,0h.18l.09,0a.09.09,0,0,0,0-.06l0,0-.08,0-.11,0-.14,0-.18-.06a.4.4,0,0,1-.13-.07.31.31,0,0,1-.09-.11.57.57,0,0,1,0-.14.57.57,0,0,1,0-.23.42.42,0,0,1,.11-.18.52.52,0,0,1,.17-.12.79.79,0,0,1,.22-.06h.16l.17,0,.14,0,.13,0Z" transform="translate(-0.09)"/><path class="cls-1" d="M18.44,47a.69.69,0,0,1,0-.28.68.68,0,0,1,.12-.26,1,1,0,0,1,.24-.2.8.8,0,0,1,.32-.1.74.74,0,0,1,.4,0,.6.6,0,0,1,.27.22l-.3.26a.22.22,0,0,0-.07-.09l-.08,0-.1,0h-.09L19,46.6a.35.35,0,0,0-.1.11.29.29,0,0,0-.05.13.76.76,0,0,0,0,.15.83.83,0,0,0,0,.15.27.27,0,0,0,.09.12.36.36,0,0,0,.12.08l.15,0,.09,0,.08,0a.23.23,0,0,0,.07-.07.41.41,0,0,0,0-.09l.36.17a.51.51,0,0,1-.09.16.64.64,0,0,1-.15.13l-.18.08a.84.84,0,0,1-.2,0,.67.67,0,0,1-.32,0,.61.61,0,0,1-.26-.15.88.88,0,0,1-.19-.24A.71.71,0,0,1,18.44,47Z" transform="translate(-0.09)"/><path class="cls-1" d="M21.34,46c0,.61.07.92.12,1.53l-.43,0L21,47l-.52,0,.05.6-.42,0C20,47,20,46.72,20,46.11l.43,0,.05.57.52,0L20.91,46Z" transform="translate(-0.09)"/><path class="cls-1" d="M22.36,47.09a.2.2,0,0,0,.13,0,.24.24,0,0,0,.08-.09.34.34,0,0,0,0-.12.75.75,0,0,0,0-.15l-.05-.78.43,0,.05.79a1,1,0,0,1,0,.3.8.8,0,0,1-.11.25.6.6,0,0,1-.21.17.82.82,0,0,1-.3.08,1,1,0,0,1-.32,0,.76.76,0,0,1-.23-.15.88.88,0,0,1-.14-.23,1.36,1.36,0,0,1-.06-.29L21.58,46l.43,0,.06.79a.59.59,0,0,0,0,.14.23.23,0,0,0,.06.12.18.18,0,0,0,.09.08A.16.16,0,0,0,22.36,47.09Z" transform="translate(-0.09)"/><path class="cls-1" d="M24.47,46.17l-.45,0,.06,1.17-.42,0-.07-1.17-.44,0,0-.37,1.32-.06Z" transform="translate(-0.09)"/><path class="cls-1" d="M24.58,47l.7-.88-.7,0V45.8l1.19,0v.31l-.66.88.69,0v.36l-1.21,0Z" transform="translate(-0.09)"/><path class="cls-1" d="M27.1,46.9v.37l-1.09,0c0-.62,0-.92,0-1.53l1.09,0v.37h-.66v.22H27v.34h-.57v.24Z" transform="translate(-0.09)"/><path class="cls-1" d="M27.72,46.51v.75h-.42l0-1.53h.33l.63.77v-.77h.43v1.53h-.33Z" transform="translate(-0.09)"/><path class="cls-1" d="M30,47.15a.58.58,0,0,1-.38.13.67.67,0,0,1-.28-.06.63.63,0,0,1-.24-.16.67.67,0,0,1-.16-.24.9.9,0,0,1-.06-.34.73.73,0,0,1,.06-.3.81.81,0,0,1,.17-.24.87.87,0,0,1,.26-.16.68.68,0,0,1,.32-.05l.2,0,.18.07.14.11a.76.76,0,0,1,.11.14L30,46.3a.29.29,0,0,0-.13-.14.36.36,0,0,0-.2-.06.35.35,0,0,0-.14,0,.28.28,0,0,0-.11.08.54.54,0,0,0-.07.13.44.44,0,0,0,0,.32.27.27,0,0,0,.07.13.28.28,0,0,0,.11.08l.14,0a.43.43,0,0,0,.33-.15H29.7v-.31l.64,0,0,.81H30Z" transform="translate(-0.09)"/><path class="cls-1" d="M31.64,47v.37l-1.09,0,0-1.54,1.1,0,0,.37-.66,0v.22l.56,0v.34l-.56,0v.24Z" transform="translate(-0.09)"/><path class="cls-1" d="M31.83,47.33c0-.61,0-.92.06-1.53l.43,0L32.26,47l.7,0,0,.37Z" transform="translate(-0.09)"/><path class="cls-1" d="M33.8,47.14l-.78,0,0-.36.84-.88.38,0-.06.94.2,0,0,.33h-.19l0,.28-.38,0Zm0-.33,0-.49-.44.46Z" transform="translate(-0.09)"/><path class="cls-1" d="M34.53,47.48c0-.61.06-.92.11-1.53l.43,0,0,.58.52-.54.48,0-.62.64c.22.35.32.53.53.89l-.48,0c-.14-.24-.2-.36-.34-.59l-.13.11,0,.44Z" transform="translate(-0.09)"/><path class="cls-1" d="M36,47.6c0-.61.08-.92.13-1.53l.43,0c-.06.61-.08.91-.14,1.52Z" transform="translate(-0.09)"/><path class="cls-1" d="M36.7,47.66l.15-1.53.6.06a1.06,1.06,0,0,1,.33.1.71.71,0,0,1,.23.19.69.69,0,0,1,.12.26,1,1,0,0,1,0,.3,1.32,1.32,0,0,1-.09.3.71.71,0,0,1-.45.36,1.1,1.1,0,0,1-.32,0Zm1-.67a.81.81,0,0,0,0-.16.35.35,0,0,0-.06-.14.45.45,0,0,0-.1-.09.33.33,0,0,0-.14,0l-.17,0-.08.8h.17a.38.38,0,0,0,.15,0l.12-.07.08-.12A.75.75,0,0,0,37.72,47Z" transform="translate(-0.09)"/><path class="cls-1" d="M39.28,46.91a.94.94,0,0,0-.12-.09L39,46.76a.25.25,0,0,0-.14,0H38.8a.05.05,0,0,0,0,.06s0,0,0,0l0,0,.09,0L39,47a1,1,0,0,1,.18.1l.14.11a.31.31,0,0,1,.07.14.35.35,0,0,1,0,.18.52.52,0,0,1-.08.23.47.47,0,0,1-.15.13.46.46,0,0,1-.2,0h-.21a.51.51,0,0,1-.17,0,.85.85,0,0,1-.17-.06l-.16-.07-.14-.09c.08-.14.13-.21.22-.35l.15.1a.53.53,0,0,0,.15.08l.17.05h.1s0,0,0,0,0,0,0-.06a.13.13,0,0,0-.07-.05l-.1,0-.13,0-.17-.1-.11-.1a.5.5,0,0,1,0-.13.35.35,0,0,1,0-.15.48.48,0,0,1,.07-.21.54.54,0,0,1,.15-.15.64.64,0,0,1,.19-.08H39l.16,0,.15.06.14.07.11.07Z" transform="translate(-0.09)"/><path class="cls-2" d="M7.05,44.72l-1-4c.74-.18,1.11-.26,1.85-.42a1.35,1.35,0,0,1,.6,0,1.58,1.58,0,0,1,.53.23,1.45,1.45,0,0,1,.39.39,1.43,1.43,0,0,1,.21.49,1.4,1.4,0,0,1,0,.54,1.55,1.55,0,0,1-.18.51,1.41,1.41,0,0,1-.37.4,1.32,1.32,0,0,1-.54.24l-.68.15.28,1.24Zm.62-2.46.61-.14A.3.3,0,0,0,8.46,42a.5.5,0,0,0,0-.36.51.51,0,0,0-.18-.32.43.43,0,0,0-.24,0l-.58.13Z" transform="translate(-0.09)"/><path class="cls-2" d="M11.25,43.82c-.31-1.63-.47-2.44-.78-4.07.79-.15,1.19-.22,2-.35a1.39,1.39,0,0,1,.61,0,1.73,1.73,0,0,1,.51.25,1.81,1.81,0,0,1,.37.41,1.37,1.37,0,0,1,.18.5,1.48,1.48,0,0,1-.42,1.27c.45.54.67.81,1.11,1.36l-1.28.21c-.37-.46-.56-.68-.94-1.13l-.43.07.22,1.25ZM12,41.38l.73-.12a.26.26,0,0,0,.18-.15.53.53,0,0,0,0-.34.5.5,0,0,0-.17-.31.31.31,0,0,0-.23-.07l-.71.12Z" transform="translate(-0.09)"/><path class="cls-2" d="M17.63,42.87a2.14,2.14,0,0,1-.88-.07,2.44,2.44,0,0,1-.73-.39,2.3,2.3,0,0,1-.52-.6,2.08,2.08,0,0,1-.26-.76,2,2,0,0,1,.42-1.52,2.23,2.23,0,0,1,.63-.55,2.28,2.28,0,0,1,.87-.28,2.15,2.15,0,0,1,.92.08,2.12,2.12,0,0,1,.74.4,2,2,0,0,1,.5.63,1.87,1.87,0,0,1,.23.76,1.77,1.77,0,0,1-.09.79,2.1,2.1,0,0,1-.37.71,2.17,2.17,0,0,1-.63.53A2.25,2.25,0,0,1,17.63,42.87Zm-1.21-2a1.74,1.74,0,0,0,.11.39,1,1,0,0,0,.23.32,1,1,0,0,0,.32.21,1.05,1.05,0,0,0,.44,0,.88.88,0,0,0,.42-.15.93.93,0,0,0,.28-.28,1.08,1.08,0,0,0,.13-.37,1.41,1.41,0,0,0,0-.41,1.24,1.24,0,0,0-.1-.39A.83.83,0,0,0,18,40a1,1,0,0,0-.34-.21,1,1,0,0,0-.44,0,1,1,0,0,0-.43.15.9.9,0,0,0-.27.28,1,1,0,0,0-.13.37A1.41,1.41,0,0,0,16.42,40.91Z" transform="translate(-0.09)"/><path class="cls-2" d="M23.86,39.16l-1.24.07.19,3.14-1.14.08-.23-3.14c-.5,0-.75,0-1.24.1l-.09-1c1.48-.13,2.22-.18,3.7-.25Z" transform="translate(-0.09)"/><path class="cls-2" d="M28,41.21v1c-1.19,0-1.78,0-3,.07l-.15-4.14c1.22-.05,1.83-.06,3.05-.07v1c-.73,0-1.1,0-1.83,0v.59l1.56,0v.92l-1.55,0,0,.65Z" transform="translate(-0.09)"/><path class="cls-2" d="M28.92,40.1a2.14,2.14,0,0,1,.16-.74,2,2,0,0,1,.44-.66,2.13,2.13,0,0,1,.7-.46,2.24,2.24,0,0,1,1-.16,2.17,2.17,0,0,1,1.08.29,1.72,1.72,0,0,1,.66.68l-.93.58a.76.76,0,0,0-.15-.25.72.72,0,0,0-.22-.17,1.15,1.15,0,0,0-.5-.12.89.89,0,0,0-.44.08,1,1,0,0,0-.31.25,1,1,0,0,0-.18.34,1.78,1.78,0,0,0-.07.39,1.52,1.52,0,0,0,.06.42,1,1,0,0,0,.49.6.88.88,0,0,0,.4.1,1.1,1.1,0,0,0,.25,0,.75.75,0,0,0,.24-.08.8.8,0,0,0,.21-.15.63.63,0,0,0,.16-.23l.92.6a1.14,1.14,0,0,1-.31.39,1.48,1.48,0,0,1-.45.28,1.83,1.83,0,0,1-.53.17,2.53,2.53,0,0,1-.54.05,2,2,0,0,1-.85-.21,2.27,2.27,0,0,1-.66-.49,2.64,2.64,0,0,1-.43-.7A2.12,2.12,0,0,1,28.92,40.1Z" transform="translate(-0.09)"/><path class="cls-1" d="M37.46,39.5l-1.24-.12c-.1,1.26-.16,1.89-.26,3.14l-1.15-.09c.09-1.25.14-1.88.23-3.14l-1.25-.08.06-1c1.48.09,2.22.15,3.7.29Z" transform="translate(-0.09)"/><path class="cls-1" d="M38.13,42.73c.17-1.65.26-2.47.44-4.12l1.19.14c-.2,1.64-.29,2.47-.49,4.11Z" transform="translate(-0.09)"/><path class="cls-1" d="M42.1,41.19l-.3,2L40.66,43c.22-1.64.34-2.46.56-4.1l.93.13c.57.93.85,1.4,1.39,2.34.13-.83.2-1.24.34-2.07l1.19.2-.73,4.08-.9-.16C42.92,42.55,42.65,42.09,42.1,41.19Z" transform="translate(-0.09)"/><path class="cls-1" d="M47.55,44.28a2,2,0,0,1-.81-.35,2.12,2.12,0,0,1-.56-.6,2.06,2.06,0,0,1-.3-.74,2.15,2.15,0,0,1,0-.8,1.94,1.94,0,0,1,.31-.74,2.1,2.1,0,0,1,.58-.57,2.18,2.18,0,0,1,.79-.31,2.33,2.33,0,0,1,.91,0,2.13,2.13,0,0,1,.85.38,2,2,0,0,1,.57.62,2.24,2.24,0,0,1,.28.76,2.1,2.1,0,0,1,0,.79,2.16,2.16,0,0,1-.34.72,2.37,2.37,0,0,1-.59.55,2.47,2.47,0,0,1-.77.3A2.19,2.19,0,0,1,47.55,44.28ZM47,42a1.91,1.91,0,0,0,0,.41,1,1,0,0,0,.11.38,1.13,1.13,0,0,0,.24.3,1.11,1.11,0,0,0,.41.18.82.82,0,0,0,.44,0,.89.89,0,0,0,.35-.18,1.1,1.1,0,0,0,.25-.31,1.26,1.26,0,0,0,.15-.38,1.35,1.35,0,0,0,0-.4.94.94,0,0,0-.11-.38.81.81,0,0,0-.25-.3.9.9,0,0,0-.41-.18.86.86,0,0,0-.45,0,.73.73,0,0,0-.35.18.91.91,0,0,0-.25.3A1.74,1.74,0,0,0,47,42Z" transform="translate(-0.09)"/><path class="cls-3" d="M72.8,35.74a6.59,6.59,0,0,0-.75-.38,5,5,0,0,0-.72-.27,2.47,2.47,0,0,0-.79-.13,1,1,0,0,0-.5.1.33.33,0,0,0-.18.32.36.36,0,0,0,.11.28,1,1,0,0,0,.31.2,4.09,4.09,0,0,0,.5.17l.66.2a9.1,9.1,0,0,1,1.06.4,3,3,0,0,1,.81.51,1.92,1.92,0,0,1,.52.71,2.64,2.64,0,0,1,.18,1,2.61,2.61,0,0,1-.28,1.28A2.35,2.35,0,0,1,73,41a3,3,0,0,1-1,.45,5.2,5.2,0,0,1-1.17.14,8,8,0,0,1-1-.07,8.57,8.57,0,0,1-1-.21A9.21,9.21,0,0,1,67.9,41a6.55,6.55,0,0,1-.84-.41l1-2.05A6.72,6.72,0,0,0,69,39a6.16,6.16,0,0,0,.87.32,3.29,3.29,0,0,0,1,.14,1,1,0,0,0,.53-.1.29.29,0,0,0,.15-.27.37.37,0,0,0-.15-.3,1.43,1.43,0,0,0-.41-.23l-.61-.19c-.23-.06-.47-.14-.73-.23a5.55,5.55,0,0,1-1-.41,2.72,2.72,0,0,1-.67-.5,1.78,1.78,0,0,1-.39-.64,2.68,2.68,0,0,1-.13-.83,2.91,2.91,0,0,1,.26-1.25,2.6,2.6,0,0,1,.7-.9,3.35,3.35,0,0,1,1-.55,4,4,0,0,1,1.2-.18,4.63,4.63,0,0,1,.92.09,5.9,5.9,0,0,1,.85.23c.28.09.54.19.78.29l.65.31Z" transform="translate(-0.09)"/><path class="cls-3" d="M74.57,37.15a4.18,4.18,0,0,1,.3-1.54,4.07,4.07,0,0,1,.86-1.36,4.36,4.36,0,0,1,1.36-1,4.48,4.48,0,0,1,1.84-.37,4.29,4.29,0,0,1,2.14.51,3.25,3.25,0,0,1,1.35,1.35L80.63,36a1.42,1.42,0,0,0-.31-.51,1.69,1.69,0,0,0-.44-.33,1.82,1.82,0,0,0-.5-.16,2.18,2.18,0,0,0-.5,0,1.86,1.86,0,0,0-.87.19,2,2,0,0,0-.6.52,2.41,2.41,0,0,0-.35.72,3.21,3.21,0,0,0-.11.8,2.65,2.65,0,0,0,.13.85,2.28,2.28,0,0,0,.39.72,1.75,1.75,0,0,0,1.44.68,2.09,2.09,0,0,0,.49,0,1.64,1.64,0,0,0,.48-.18,1.46,1.46,0,0,0,.42-.32,1.35,1.35,0,0,0,.3-.49l1.91,1.14a2.52,2.52,0,0,1-.59.84A3.71,3.71,0,0,1,81,41a5.43,5.43,0,0,1-1.07.38,4.8,4.8,0,0,1-1.11.13,4,4,0,0,1-1.74-.38,4.45,4.45,0,0,1-2.23-2.42A4.27,4.27,0,0,1,74.57,37.15Z" transform="translate(-0.09)"/><path class="cls-3" d="M90.87,33v8.52H88.53V38.14H85.67v3.34H83.33V33h2.34V36.1h2.86V33Z" transform="translate(-0.09)"/><path class="cls-3" d="M96.05,39.47a1.37,1.37,0,0,0,.7-.17,1.54,1.54,0,0,0,.47-.48,2,2,0,0,0,.26-.68,3.44,3.44,0,0,0,.09-.8V33h2.34v4.38A5.94,5.94,0,0,1,99.68,39,3.59,3.59,0,0,1,99,40.34a3.32,3.32,0,0,1-1.21.89,4.24,4.24,0,0,1-1.71.32,4,4,0,0,1-1.74-.34,3.47,3.47,0,0,1-1.2-.92A3.61,3.61,0,0,1,92.43,39a6,6,0,0,1-.22-1.61V33h2.34v4.38a3.59,3.59,0,0,0,.09.81,2,2,0,0,0,.26.68,1.48,1.48,0,0,0,.46.47A1.26,1.26,0,0,0,96.05,39.47Z" transform="translate(-0.09)"/><path class="cls-3" d="M107.89,35h-2.45v6.48H103.1V35h-2.46V33h7.25Z" transform="translate(-0.09)"/><path class="cls-3" d="M108.33,39.74l4-4.74h-3.8V33H115V34.7l-3.74,4.74h3.82v2h-6.76Z" transform="translate(-0.09)"/><path class="cls-3" d="M122.27,39.44v2H116.2V33h6v2h-3.63v1.2h3.1v1.9h-3.1v1.34Z" transform="translate(-0.09)"/><path class="cls-3" d="M125.71,37.29v4.19h-2.34V33h1.82l3.42,4.33V33H131v8.52h-1.86Z" transform="translate(-0.09)"/><path class="cls-3" d="M138.2,40.77a3.19,3.19,0,0,1-2.1.77,4.32,4.32,0,0,1-1.59-.3,3.84,3.84,0,0,1-1.32-.85,4.46,4.46,0,0,1-.9-1.38,5,5,0,0,1-.33-1.86,4.27,4.27,0,0,1,.33-1.68,4.27,4.27,0,0,1,2.31-2.24,4.52,4.52,0,0,1,1.73-.33,4.94,4.94,0,0,1,1.1.12,4.08,4.08,0,0,1,1.79,1,3.21,3.21,0,0,1,.59.78l-1.74,1.33a1.91,1.91,0,0,0-.76-.81,2.07,2.07,0,0,0-1.07-.31,1.81,1.81,0,0,0-.77.17,2,2,0,0,0-.6.47,2.32,2.32,0,0,0-.39.71,2.67,2.67,0,0,0-.15.91,2.59,2.59,0,0,0,.15.91,2.15,2.15,0,0,0,.4.71,1.87,1.87,0,0,0,.62.45,1.91,1.91,0,0,0,.8.16,2.39,2.39,0,0,0,1.8-.84h-1.47V36.94h3.5v4.54H138.2Z" transform="translate(-0.09)"/><path class="cls-3" d="M147.35,39.44v2h-6.07V33h6v2h-3.63v1.2h3.1v1.9h-3.1v1.34Z" transform="translate(-0.09)"/><path class="cls-3" d="M148.45,41.48V33h2.34v6.48h3.86v2Z" transform="translate(-0.09)"/><path class="cls-3" d="M158,42V40.52h-3.09V38.47l3.81-4.84h1.56v4.84h1.05v2.05h-1.05V42Zm-.84-3.53h1.1V37Z" transform="translate(-0.09)"/><path class="cls-3" d="M162.5,41.48V33h2.34V36.2L167.43,33h2.64L167,36.77l3.32,4.71H167.6l-2.11-3.13-.65.67v2.46Z" transform="translate(-0.09)"/><path class="cls-3" d="M170.78,41.48V33h2.34v8.52Z" transform="translate(-0.09)"/><path class="cls-3" d="M174.58,41.48V33h3.28a4.71,4.71,0,0,1,1.86.34,3.75,3.75,0,0,1,1.34.91,3.86,3.86,0,0,1,.82,1.35,5.25,5.25,0,0,1,0,3.41,4,4,0,0,1-.87,1.34,3.9,3.9,0,0,1-1.36.86,4.75,4.75,0,0,1-1.76.31Zm5.2-4.27a2.83,2.83,0,0,0-.14-.9,2,2,0,0,0-.37-.7,1.83,1.83,0,0,0-.61-.45,1.91,1.91,0,0,0-.8-.16h-.94v4.44h.94a1.92,1.92,0,0,0,.81-.17,1.76,1.76,0,0,0,.61-.47,2,2,0,0,0,.37-.7A3.19,3.19,0,0,0,179.78,37.21Z" transform="translate(-0.09)"/><path class="cls-3" d="M188.26,35.74a7.39,7.39,0,0,0-.74-.38,5.59,5.59,0,0,0-.73-.27A2.47,2.47,0,0,0,186,35a1,1,0,0,0-.49.1.32.32,0,0,0-.19.32.39.39,0,0,0,.11.28,1.11,1.11,0,0,0,.31.2,4.79,4.79,0,0,0,.5.17l.67.2a9.85,9.85,0,0,1,1.06.4,3.28,3.28,0,0,1,.81.51,2,2,0,0,1,.51.71,2.64,2.64,0,0,1,.18,1,2.61,2.61,0,0,1-.28,1.28,2.42,2.42,0,0,1-.74.84,3.09,3.09,0,0,1-1,.45,5.13,5.13,0,0,1-1.17.14,8,8,0,0,1-1-.07,9.05,9.05,0,0,1-1-.21,9.21,9.21,0,0,1-.93-.31,5.83,5.83,0,0,1-.83-.41l1-2.05a7.43,7.43,0,0,0,.88.47,7.25,7.25,0,0,0,.87.32,3.29,3.29,0,0,0,1,.14,1,1,0,0,0,.53-.1.29.29,0,0,0,.15-.27.37.37,0,0,0-.15-.3,1.3,1.3,0,0,0-.41-.23l-.61-.19c-.23-.06-.47-.14-.72-.23a5.67,5.67,0,0,1-1-.41,2.72,2.72,0,0,1-.67-.5,2.12,2.12,0,0,1-.39-.64,2.68,2.68,0,0,1-.12-.83,2.77,2.77,0,0,1,.26-1.25,2.49,2.49,0,0,1,.7-.9,3.18,3.18,0,0,1,1-.55,4,4,0,0,1,1.21-.18A4.6,4.6,0,0,1,187,33a6,6,0,0,1,.86.23c.27.09.53.19.77.29l.65.31Z" transform="translate(-0.09)"/><path class="cls-4" d="M68.11,28.48v-14h6a4.29,4.29,0,0,1,1.89.42A4.73,4.73,0,0,1,77.51,16a5.07,5.07,0,0,1,1,1.55,4.58,4.58,0,0,1,.36,1.76,4.84,4.84,0,0,1-.34,1.8,4.9,4.9,0,0,1-.93,1.56,4.52,4.52,0,0,1-1.46,1.08,4.35,4.35,0,0,1-1.88.41H72v4.29ZM72,20.84h2a.88.88,0,0,0,.65-.33,1.66,1.66,0,0,0,.31-1.17,1.58,1.58,0,0,0-.35-1.18,1.09,1.09,0,0,0-.71-.31H72Z" transform="translate(-0.09)"/><path class="cls-4" d="M80.37,28.48v-14h6.42a4.23,4.23,0,0,1,1.89.42A4.73,4.73,0,0,1,90.17,16a5.07,5.07,0,0,1,1,1.55,4.58,4.58,0,0,1,.36,1.76A5.06,5.06,0,0,1,91,21.62a4.74,4.74,0,0,1-1.48,1.72l3,5.14H88.11l-2.46-4.29H84.21v4.29Zm3.84-7.64h2.43a.84.84,0,0,0,.65-.39,1.75,1.75,0,0,0,.31-1.11,1.62,1.62,0,0,0-.35-1.11,1,1,0,0,0-.71-.38H84.21Z" transform="translate(-0.09)"/><path class="cls-4" d="M99.79,28.6a6.84,6.84,0,0,1-2.9-.61,7.37,7.37,0,0,1-2.22-1.61,7.22,7.22,0,0,1-2-4.91,6.94,6.94,0,0,1,.53-2.66,7.12,7.12,0,0,1,1.49-2.25A7.24,7.24,0,0,1,97,15a7,7,0,0,1,2.87-.58,6.68,6.68,0,0,1,2.89.61,7.1,7.1,0,0,1,3.65,3.9,7,7,0,0,1,.51,2.62,6.72,6.72,0,0,1-.54,2.65,7.14,7.14,0,0,1-1.47,2.24A7.32,7.32,0,0,1,102.65,28,6.9,6.9,0,0,1,99.79,28.6Zm-3.17-7.09a4.82,4.82,0,0,0,.19,1.37,3.6,3.6,0,0,0,.6,1.17,3,3,0,0,0,1,.83,3.4,3.4,0,0,0,2.86,0,3,3,0,0,0,1-.85,3.75,3.75,0,0,0,.57-1.19,4.88,4.88,0,0,0,0-2.73,3.28,3.28,0,0,0-.6-1.16,3.05,3.05,0,0,0-1-.81,3.15,3.15,0,0,0-1.41-.3,3,3,0,0,0-1.43.31,2.88,2.88,0,0,0-1,.84,3.34,3.34,0,0,0-.58,1.18A4.74,4.74,0,0,0,96.62,21.51Z" transform="translate(-0.09)"/><path class="cls-4" d="M119.22,17.85h-4V28.48h-3.84V17.85h-4V14.5h11.89Z" transform="translate(-0.09)"/><path class="cls-4" d="M130.58,25.13v3.35h-10v-14h9.79v3.35h-6v2h5.08v3.11h-5.08v2.2Z" transform="translate(-0.09)"/><path class="cls-4" d="M131.39,21.37a7,7,0,0,1,.48-2.52,6.66,6.66,0,0,1,1.41-2.22,7.23,7.23,0,0,1,2.25-1.6,7.74,7.74,0,0,1,6.52.23,5.49,5.49,0,0,1,2.22,2.21l-2.94,2.09a2.46,2.46,0,0,0-1.24-1.38,3,3,0,0,0-.81-.27,4,4,0,0,0-.82-.08,2.93,2.93,0,0,0-1.43.32,2.89,2.89,0,0,0-1,.85,3.5,3.5,0,0,0-.57,1.18,4.61,4.61,0,0,0-.19,1.31,4.41,4.41,0,0,0,.22,1.4,3.53,3.53,0,0,0,.63,1.18,3.12,3.12,0,0,0,1,.82,3,3,0,0,0,1.35.3,3.86,3.86,0,0,0,.81-.09,3.26,3.26,0,0,0,.79-.29,2.76,2.76,0,0,0,.69-.53,2.22,2.22,0,0,0,.48-.8l3.14,1.87a4,4,0,0,1-1,1.38,6.36,6.36,0,0,1-1.46,1,7.29,7.29,0,0,1-1.75.63,8.3,8.3,0,0,1-1.82.22,6.54,6.54,0,0,1-2.85-.62,7.15,7.15,0,0,1-2.22-1.65A7.44,7.44,0,0,1,131.9,24,7.2,7.2,0,0,1,131.39,21.37Z" transform="translate(-0.09)"/><path class="cls-3" d="M156.65,17.85h-4V28.48H148.8V17.85h-4V14.5h11.89Z" transform="translate(-0.09)"/><path class="cls-3" d="M158.05,28.48v-14h3.84v14Z" transform="translate(-0.09)"/><path class="cls-3" d="M168.13,21.61v6.87h-3.84v-14h3l5.61,7.11V14.5h3.84v14h-3.06Z" transform="translate(-0.09)"/><path class="cls-3" d="M185.44,28.6a6.88,6.88,0,0,1-2.9-.61,7.37,7.37,0,0,1-2.22-1.61,7.22,7.22,0,0,1-1.95-4.91,6.94,6.94,0,0,1,.53-2.66,7.12,7.12,0,0,1,1.49-2.25A7.24,7.24,0,0,1,182.65,15a7,7,0,0,1,2.87-.58,6.68,6.68,0,0,1,2.89.61,7.1,7.1,0,0,1,3.65,3.9,7,7,0,0,1,.51,2.62A6.72,6.72,0,0,1,192,24.2a7.14,7.14,0,0,1-1.47,2.24A7.32,7.32,0,0,1,188.3,28,6.9,6.9,0,0,1,185.44,28.6Zm-3.17-7.09a4.82,4.82,0,0,0,.19,1.37,3.6,3.6,0,0,0,.6,1.17,3,3,0,0,0,1,.83,3,3,0,0,0,1.43.31,3.12,3.12,0,0,0,1.44-.32,3,3,0,0,0,1-.85,3.54,3.54,0,0,0,.57-1.19,4.88,4.88,0,0,0,0-2.73,3.28,3.28,0,0,0-.6-1.16,3.05,3.05,0,0,0-1-.81,3.15,3.15,0,0,0-1.41-.3,3,3,0,0,0-1.43.31,2.88,2.88,0,0,0-1,.84,3.34,3.34,0,0,0-.58,1.18A4.74,4.74,0,0,0,182.27,21.51Z" transform="translate(-0.09)"/></svg>